<?xml version="1.0" encoding="utf-8"?>
<!-- Generator: Adobe Illustrator 16.0.0, SVG Export Plug-In . SVG Version: 6.00 Build 0)  -->
<!DOCTYPE svg PUBLIC "-//W3C//DTD SVG 1.1//EN" "http://www.w3.org/Graphics/SVG/1.1/DTD/svg11.dtd">
<svg version="1.1" id="Layer_1" xmlns="http://www.w3.org/2000/svg" xmlns:xlink="http://www.w3.org/1999/xlink" x="0px" y="0px"
	 width="500px" height="500px" viewBox="0 0 500 500" enable-background="new 0 0 500 500" xml:space="preserve">
<circle fill="#B70258" cx="250" cy="250" r="250"/>
<g>
	<g>
		<g>
			<g>
				<path fill="#FFFFFF" d="M335.964,397c0.033,8.478,0.066,16.956,0.1,25.434c1.667-1.667,3.333-3.333,5-5
					c-47.807,0-95.613,0-143.42,0c-26.462,0-52.924,0-79.387,0c1.667,1.667,3.333,3.333,5,5c0-41.638,0-83.274,0-124.912
					c0-54.786,0-109.572,0-164.357c0-3.424,0-6.848,0-10.272c0-6.449-10-6.449-10,0c0,41.637,0,83.274,0,124.912
					c0,54.786,0,109.571,0,164.357c0,3.424,0,6.849,0,10.272c0,2.726,2.274,5,5,5c47.807,0,95.613,0,143.42,0
					c26.462,0,52.925,0,79.387,0c2.718,0,5.011-2.274,5-5c-0.033-8.478-0.066-16.956-0.1-25.434
					C345.938,390.553,335.938,390.55,335.964,397L335.964,397z"/>
			</g>
		</g>
		<g>
			<g>
				<path fill="#FFFFFF" d="M341.063,398c6.448,0,6.448-10,0-10S334.615,398,341.063,398L341.063,398z"/>
			</g>
		</g>
		<g>
			<g>
				<path fill="#FFFFFF" d="M156.3,84.44c49.764,0,99.526,0,149.29,0c11.825,0,23.649,0,35.474,0c-1.667-1.667-3.333-3.333-5-5
					c0,36.854,0,73.707,0,110.56c0,6.449,10,6.449,10,0c0-36.854,0-73.707,0-110.56c0-2.726-2.274-5-5-5
					c-49.764,0-99.527,0-149.291,0c-11.824,0-23.649,0-35.473,0C149.851,74.44,149.851,84.44,156.3,84.44L156.3,84.44z"/>
			</g>
		</g>
		<g>
			<polygon fill="#FFFFFF" points="119.18,121.207 155.14,121.207 155.14,80.333 			"/>
			<g>
				<path fill="#FFFFFF" d="M119.18,126.207c11.987,0,23.973,0,35.96,0c2.726,0,5-2.274,5-5c0-13.625,0-27.249,0-40.873
					c0-4.157-5.58-6.895-8.536-3.536c-11.986,13.625-23.973,27.249-35.96,40.873c-4.241,4.821,2.804,11.922,7.071,7.071
					c11.986-13.625,23.973-27.249,35.96-40.873c-2.845-1.179-5.69-2.357-8.536-3.536c0,13.625,0,27.249,0,40.873
					c1.667-1.667,3.333-3.333,5-5c-11.987,0-23.973,0-35.96,0C112.731,116.207,112.731,126.207,119.18,126.207z"/>
			</g>
		</g>
	</g>
	<g>
		<g>
			<g>
				<path fill="#FFFFFF" d="M422.742,291.671c-0.275,45.257-28.738,86.418-71.32,102.115c-43.125,15.898-91.878,1.93-121.254-32.949
					c-29.513-35.042-32.396-86.574-9.079-125.521c23.411-39.101,70.421-59.092,114.872-50.136
					C386.158,195.293,422.432,240.823,422.742,291.671c0.039,6.446,10.039,6.45,10,0c-0.275-45.034-26.067-86.658-66.513-106.618
					c-41.096-20.282-90.621-14.067-126.391,14.023c-35.778,28.097-51.31,75.819-41.343,119.812
					c9.839,43.433,45.293,78.05,88.344,88.341c35.468,8.479,72.923-0.58,101.417-22.956c28.154-22.11,44.269-57.02,44.485-92.602
					C432.781,285.221,422.781,285.225,422.742,291.671z"/>
			</g>
		</g>
		<g>
			<g>
				<path fill="#FFFFFF" d="M313.23,183.042c18.167,0.262,30.567,16.839,38.235,31.45c12.053,22.967,16.203,49.991,16.51,75.648
					c0.311,25.96-3.912,52.977-15.334,76.484c-7.188,14.796-19.62,32.108-37.588,33.387c-0.614,0.035-1.229,0.053-1.844,0.053
					c-6.443,0.092-6.452,10.092,0,10c18.227-0.259,32.182-12.959,41.792-27.361c13.396-20.074,19.256-44.836,21.831-68.509
					c2.954-27.149,0.658-55.421-7.334-81.563c-5.968-19.521-15.907-39.339-32.714-51.653c-6.813-4.991-15.118-7.813-23.555-7.935
					C306.778,172.949,306.788,182.949,313.23,183.042L313.23,183.042z"/>
			</g>
		</g>
		<g>
			<g>
				<path fill="#FFFFFF" d="M313.86,173.104c-17.787,0.291-30.596,14.428-38.907,28.769c-12.383,21.363-17.45,46.785-19.512,71.112
					c-2.318,27.35,0.057,55.671,8.117,81.959c5.698,18.583,15.071,38.373,31.674,49.555c5.592,3.767,12.264,5.823,18.988,5.932
					c6.452,0.104,6.442-9.896,0-10c-17.027-0.273-27.988-17.68-34.535-31.268c-11.371-23.594-14.919-51.021-15.016-76.935
					c-0.096-25.728,3.748-52.539,14.285-76.188c6.236-13.995,17.494-32.651,34.905-32.936
					C320.302,182.999,320.313,172.999,313.86,173.104L313.86,173.104z"/>
			</g>
		</g>
		<g>
			<g>
				<path fill="#FFFFFF" d="M201.533,295.761c47.648-0.001,95.297-0.003,142.945-0.004c27.566-0.001,55.133-0.002,82.699-0.003
					c6.448,0,6.448-10,0-10c-47.648,0.001-95.297,0.003-142.945,0.004c-27.566,0.001-55.133,0.002-82.699,0.003
					C195.084,285.761,195.084,295.761,201.533,295.761L201.533,295.761z"/>
			</g>
		</g>
		<g>
			<g>
				<path fill="#FFFFFF" d="M213.687,243.537c49.226-0.002,98.451-0.003,147.677-0.005c17.229-0.001,34.459-0.001,51.688-0.002
					c6.448,0,6.448-10,0-10c-49.226,0.001-98.451,0.003-147.678,0.005c-17.229,0.001-34.458,0.001-51.687,0.002
					C207.238,233.537,207.238,243.537,213.687,243.537L213.687,243.537z"/>
			</g>
		</g>
		<g>
			<g>
				<path fill="#FFFFFF" d="M214.343,349.955c49.228-0.001,98.454-0.002,147.681-0.003c17.229,0,34.459-0.001,51.688-0.001
					c6.448,0,6.448-10,0-10c-49.227,0.001-98.454,0.002-147.681,0.003c-17.229,0-34.459,0.001-51.688,0.001
					C207.894,339.955,207.894,349.955,214.343,349.955L214.343,349.955z"/>
			</g>
		</g>
		<g>
			<g>
				<path fill="#FFFFFF" d="M308.858,179.861c0.002,47.725,0.003,95.449,0.005,143.174c0.001,27.011,0.002,54.022,0.003,81.034
					c0,6.448,10,6.448,10,0c-0.002-47.725-0.003-95.449-0.005-143.174c-0.001-27.011-0.002-54.022-0.003-81.034
					C318.858,173.413,308.858,173.413,308.858,179.861L308.858,179.861z"/>
			</g>
		</g>
	</g>
	<g>
		<g>
			<path fill="#FFFFFF" d="M169,134.5c50,0,100,0,150,0c3.225,0,3.225-5,0-5c-2.739,0-5.479,0-8.219,0c-3.225,0-3.225,5,0,5
				c2.739,0,5.479,0,8.219,0c3.225,0,3.225-5,0-5c-50,0-100,0-150,0C165.776,129.5,165.776,134.5,169,134.5L169,134.5z"/>
		</g>
	</g>
	<g>
		<g>
			<path fill="#FFFFFF" d="M143.333,166.333c58.667,0,117.334,0,176.001,0c3.225,0,3.225-5,0-5c-3.214,0-6.429,0-9.643,0
				c-3.225,0-3.225,5,0,5c3.214,0,6.429,0,9.643,0c3.225,0,3.225-5,0-5c-58.667,0-117.334,0-176.001,0
				C140.109,161.333,140.109,166.333,143.333,166.333L143.333,166.333z"/>
		</g>
	</g>
	<g>
		<g>
			<path fill="#FFFFFF" d="M143.333,198.167c37.056,0,74.111,0,111.167,0c3.225,0,3.225-5,0-5c-2.03,0-4.061,0-6.091,0
				c-3.224,0-3.224,5,0,5c2.03,0,4.061,0,6.091,0c3.225,0,3.225-5,0-5c-37.056,0-74.111,0-111.167,0
				C140.109,193.167,140.109,198.167,143.333,198.167L143.333,198.167z"/>
		</g>
	</g>
	<g>
		<g>
			<path fill="#FFFFFF" d="M143.333,230c25.167,0,50.333,0,75.5,0c3.224,0,3.224-5,0-5c-1.379,0-2.758,0-4.137,0
				c-3.224,0-3.224,5,0,5c1.379,0,2.758,0,4.137,0c3.224,0,3.224-5,0-5c-25.167,0-50.333,0-75.5,0
				C140.109,225,140.109,230,143.333,230L143.333,230z"/>
		</g>
	</g>
	<g>
		<g>
			<path fill="#FFFFFF" d="M143.333,261.834c20.389,0,40.778,0,61.167,0c3.224,0,3.224-5,0-5c-1.117,0-2.234,0-3.351,0
				c-3.224,0-3.224,5,0,5c1.117,0,2.234,0,3.351,0c3.224,0,3.224-5,0-5c-20.389,0-40.778,0-61.167,0
				C140.109,256.834,140.109,261.834,143.333,261.834L143.333,261.834z"/>
		</g>
	</g>
	<g>
		<g>
			<path fill="#FFFFFF" d="M143.167,293.667c18.444,0,36.889,0,55.333,0c3.224,0,3.224-5,0-5c-1.01,0-2.021,0-3.031,0
				c-3.224,0-3.224,5,0,5c1.01,0,2.021,0,3.031,0c3.224,0,3.224-5,0-5c-18.444,0-36.889,0-55.333,0
				C139.943,288.667,139.943,293.667,143.167,293.667L143.167,293.667z"/>
		</g>
	</g>
	<g>
		<g>
			<path fill="#FFFFFF" d="M143.333,325.5c20.222,0,40.444,0,60.667,0c3.224,0,3.224-5,0-5c-1.108,0-2.215,0-3.323,0
				c-3.224,0-3.224,5,0,5c1.108,0,2.215,0,3.323,0c3.224,0,3.224-5,0-5c-20.222,0-40.444,0-60.667,0
				C140.109,320.5,140.109,325.5,143.333,325.5L143.333,325.5z"/>
		</g>
	</g>
	<g>
		<g>
			<path fill="#FFFFFF" d="M143.333,357.334c24.389,0,48.778,0,73.167,0c3.224,0,3.224-5,0-5c-1.336,0-2.673,0-4.009,0
				c-3.224,0-3.224,5,0,5c1.336,0,2.673,0,4.009,0c3.224,0,3.224-5,0-5c-24.389,0-48.778,0-73.167,0
				C140.109,352.334,140.109,357.334,143.333,357.334L143.333,357.334z"/>
		</g>
	</g>
	<g>
		<g>
			<path fill="#FFFFFF" d="M143.167,389.167c33.778,0,67.555,0,101.333,0c3.225,0,3.225-5,0-5c-1.851,0-3.702,0-5.552,0
				c-3.224,0-3.224,5,0,5c1.851,0,3.702,0,5.552,0c3.225,0,3.225-5,0-5c-33.778,0-67.555,0-101.333,0
				C139.943,384.167,139.943,389.167,143.167,389.167L143.167,389.167z"/>
		</g>
	</g>
</g>
</svg>
