<?xml version="1.0" encoding="utf-8"?>
<!-- Generator: Adobe Illustrator 16.0.0, SVG Export Plug-In . SVG Version: 6.00 Build 0)  -->
<!DOCTYPE svg PUBLIC "-//W3C//DTD SVG 1.1//EN" "http://www.w3.org/Graphics/SVG/1.1/DTD/svg11.dtd">
<svg version="1.1" id="Layer_1" xmlns="http://www.w3.org/2000/svg" xmlns:xlink="http://www.w3.org/1999/xlink" x="0px" y="0px"
	 width="500px" height="500px" viewBox="0 0 500 500" enable-background="new 0 0 500 500" xml:space="preserve">
<circle fill="#B70258" cx="250" cy="250" r="250"/>
<g>
	<g>
		<path fill="#F6F6F6" d="M341.021,301.746c-49.819,0-99.639,0-149.459,0c-11.127,0-22.254,0-33.381,0c1.667,1.667,3.333,3.333,5,5
			c0-47.365,0-94.73,0-142.095c0-28.906,0-57.811,0-86.716c-1.667,1.667-3.333,3.333-5,5c49.82,0,99.64,0,149.459,0
			c11.127,0,22.254,0,33.381,0c-1.667-1.667-3.333-3.333-5-5c0,47.365,0,94.73,0,142.095c0,28.905,0,57.811,0,86.716
			c0,6.448,10,6.448,10,0c0-47.365,0-94.73,0-142.095c0-28.906,0-57.811,0-86.716c0-2.726-2.274-5-5-5c-49.819,0-99.639,0-149.459,0
			c-11.127,0-22.254,0-33.381,0c-2.726,0-5,2.274-5,5c0,47.365,0,94.73,0,142.095c0,28.905,0,57.811,0,86.716c0,2.726,2.274,5,5,5
			c49.82,0,99.64,0,149.459,0c11.127,0,22.254,0,33.381,0C347.47,311.746,347.47,301.746,341.021,301.746z"/>
	</g>
</g>
<g>
	<g>
		<path fill="#F6F6F6" d="M210.335,242.194c10.162,3.847,18.553,1.22,26.354-5.899c4.453-4.064,8.042-9.088,13.865-11.29
			c8.109-3.066,16.44,2.927,22.18,7.979c7.638,6.72,14.577,12.346,25.228,10.186c10.92-2.214,19.427-8.484,23.67-18.819
			c4.435-10.801,2.728-24.05-0.828-34.808c-3.97-12.013-11.634-22.007-22.278-28.777c-18.951-12.053-41.875-15.779-63.863-11.305
			c-20.575,4.187-37.817,21.802-43.151,41.743c-4.91,18.353-0.26,41.866,18.226,50.739c2.892,1.388,5.43-2.922,2.523-4.317
			c-25.976-12.467-20.011-50.689-3.043-67.913c8.99-9.125,20.045-14.816,32.693-16.418c11.604-1.47,23.751-0.497,34.994,2.672
			c12.199,3.438,24.937,11.131,32.288,21.486c7.83,11.029,11.505,25.758,9.377,39.14c-2.061,12.961-12.772,21.718-25.836,22.246
			c-5.383,0.218-10.057-3.844-13.953-7.015c-5.283-4.3-9.646-8.525-16.083-11.152c-9.828-4.011-18.417,0.97-25.221,7.821
			c-7.692,7.747-14.539,13.147-25.813,8.88C208.643,236.229,207.35,241.064,210.335,242.194z"/>
	</g>
</g>
<ellipse fill="#FFFFFF" stroke="#F6F6F6" stroke-miterlimit="10" cx="277.504" cy="173.547" rx="7.248" ry="7.449"/>
<ellipse fill="#FFFFFF" stroke="#F6F6F6" stroke-miterlimit="10" cx="250.124" cy="167.105" rx="7.248" ry="7.45"/>
<ellipse fill="#FFFFFF" stroke="#F6F6F6" stroke-miterlimit="10" cx="222.744" cy="175.963" rx="7.248" ry="7.45"/>
<ellipse fill="#FFFFFF" stroke="#F6F6F6" stroke-miterlimit="10" cx="208.249" cy="198.512" rx="7.247" ry="7.45"/>
<ellipse fill="#FFFFFF" stroke="#F6F6F6" stroke-miterlimit="10" cx="217.912" cy="221.866" rx="7.248" ry="7.449"/>
<ellipse fill="#FFFFFF" stroke="#F6F6F6" stroke-miterlimit="10" cx="296.429" cy="187.64" rx="7.248" ry="7.45"/>
<g>
	
		<ellipse transform="matrix(0.9355 0.3532 -0.3532 0.9355 96.2756 -94.9473)" fill="#FFFFFF" cx="308.296" cy="216.324" rx="3.171" ry="44.305"/>
	<g>
		<path fill="#F6F6F6" d="M310.058,217.112c-3.431,9.042-7.016,18.024-10.974,26.849c-1.267,2.824-2.599,5.618-4.029,8.362
			c-0.486,0.932-1.009,1.843-1.553,2.741c-0.202,0.328-0.416,0.65-0.64,0.965c-0.648,0.519-0.397,0.823,0.751,0.915
			c-0.348-4.737,2.356-10.63,3.724-15.042c2.755-8.89,5.925-17.654,9.198-26.364c3.401-9.05,7.018-18.028,10.976-26.851
			c1.266-2.823,2.598-5.618,4.029-8.361c0.485-0.932,1.008-1.843,1.552-2.741c0.203-0.329,0.416-0.65,0.64-0.964
			c0.649-0.519,0.398-0.824-0.751-0.916c0.348,4.738-2.355,10.63-3.723,15.042C316.502,199.637,313.332,208.401,310.058,217.112
			c-0.568,1.512,1.849,2.159,2.41,0.665c1.256-3.341,17.285-42.602,11.815-44.107c-3.057-0.841-5.954,7.435-6.779,9.129
			c-5.063,10.407-9.277,21.262-13.379,32.073c-1.266,3.336-17.276,42.604-11.813,44.105c3.057,0.841,5.954-7.435,6.778-9.129
			c5.063-10.406,9.277-21.261,13.378-32.071C313.041,216.267,310.623,215.62,310.058,217.112z"/>
	</g>
</g>
<g>
	<path fill="#FFFFFF" d="M330.558,152.273c1.869,3.72,2.941,20.039-5.432,16.674c-3.768-1.422-0.404-4.974,1.387-7.777
		c1.687-2.645,3.918-5.544,4.162-8.468"/>
	<g>
		<path fill="#F6F6F6" d="M329.535,152.501c1.794,3.896,1.804,9.982,0.051,13.86c-0.471,1.042-1.379,1.858-2.547,1.945
			c-3.584,0.267-1.532-3.468-0.561-4.875c2.204-3.193,4.726-6.485,5.335-10.402c0.188-1.209-2.051-2.113-2.277-0.654
			c-0.549,3.525-2.973,6.57-4.962,9.436c-1.197,1.726-2.511,3.472-2.189,5.664c0.429,2.936,5.209,3.501,7.309,2.453
			c5.088-2.541,3.78-13.772,1.887-17.883C331.025,150.84,328.851,151.015,329.535,152.501L329.535,152.501z"/>
	</g>
</g>
<rect x="316.28" y="185.417" transform="matrix(0.9355 0.3533 -0.3533 0.9355 86.4329 -100.8613)" fill="#FFFFFF" stroke="#F6F6F6" stroke-miterlimit="10" width="6.417" height="1.806"/>
<rect x="242.998" y="306.891" fill="#FFFFFF" stroke="#F6F6F6" stroke-miterlimit="10" width="13.169" height="98.785"/>
<polygon fill="#FFFFFF" stroke="#F6F6F6" stroke-miterlimit="10" points="175.408,440.216 163.9,440.226 190.024,307.682 
	201.757,307.178 "/>
<polygon fill="#FFFFFF" stroke="#F6F6F6" stroke-miterlimit="10" points="299.521,308.932 309.767,306.458 336.177,440.5 
	324.874,440.105 "/>
<rect x="241.908" y="57.072" fill="#FFFFFF" stroke="#F6F6F6" stroke-miterlimit="10" width="13.169" height="21.974"/>
</svg>
