<?xml version="1.0" encoding="utf-8"?>
<!-- Generator: Adobe Illustrator 16.0.0, SVG Export Plug-In . SVG Version: 6.00 Build 0)  -->
<!DOCTYPE svg PUBLIC "-//W3C//DTD SVG 1.1//EN" "http://www.w3.org/Graphics/SVG/1.1/DTD/svg11.dtd">
<svg version="1.1" id="Layer_1" xmlns="http://www.w3.org/2000/svg" xmlns:xlink="http://www.w3.org/1999/xlink" x="0px" y="0px"
	 width="500px" height="500px" viewBox="0 0 500 500" enable-background="new 0 0 500 500" xml:space="preserve">
<circle fill="#B70258" cx="251" cy="251" r="250"/>
<g>
	<g>
		<path fill="#FFFFFF" d="M372.041,436.895c-13.673-0.011-27.345-0.022-41.018-0.033c0.72,0.413,1.439,0.825,2.158,1.238
			c-3.167-6.681-4.618-12.753-4.784-20.042c-0.195-8.549-0.105-17.106-0.023-25.657c0.07-7.271,0.183-14.543,0.319-21.813
			c0.016-0.78,0.03-1.56,0.046-2.34c0.035-1.732-0.953,1.414-0.541,0.892c2.1-2.661,4.2-5.321,6.3-7.982
			c1.016-1.286,2.03-2.571,3.045-3.857c1.428-1.809,0.82-0.548-0.577-0.559c2.511,0.02,5.021,0.039,7.532,0.058
			c6.998,0.054,13.995,0.106,20.992,0.16c2.063,0.016-0.502-0.435-0.555-0.496c0.799,0.935,1.597,1.87,2.396,2.805
			c2.464,2.886,4.928,5.771,7.392,8.656c1.479,1.732,0.004-0.875,0.008-0.653c0.011,0.633,0.021,1.266,0.032,1.899
			c0.051,3.051,0.097,6.102,0.139,9.153c0.162,11.56,0.298,23.124,0.218,34.686c-0.026,3.825,0.254,7.93-0.575,11.687
			c-1.059,4.801-3.031,9.505-4.914,14.035c-1.236,2.978,3.604,4.263,4.822,1.33c2.549-6.138,5.263-12.537,5.524-19.248
			c0.305-7.836,0.178-15.699,0.127-23.539c-0.053-8.204-0.158-16.408-0.285-24.611c-0.069-4.487,0.079-6.353-2.875-9.813
			c-2.37-2.775-4.741-5.552-7.111-8.328c-1.219-1.427-1.975-2.543-3.986-2.559c-6.817-0.052-13.635-0.104-20.453-0.156
			c-4.517-0.034-8.825-1.285-11.791,2.473c-2.245,2.845-4.491,5.69-6.736,8.535c-1.018,1.289-3.078,3.124-3.114,4.89
			c-0.249,11.889-0.411,23.78-0.45,35.672c-0.021,6.565-0.052,13.147,0.265,19.707c0.299,6.201,2.664,11.984,5.3,17.542
			c0.367,0.776,1.337,1.237,2.158,1.238c13.673,0.011,27.345,0.022,41.018,0.033C375.266,441.897,375.266,436.897,372.041,436.895z"
			/>
	</g>
</g>
<g>
	<g>
		<path fill="#FFFFFF" d="M367.415,342.832c-10.465,0-20.929,0-31.394,0c0.833,0.833,1.667,1.667,2.5,2.5c0-7.844,0-15.688,0-23.532
			c-0.833,0.833-1.667,1.667-2.5,2.5c10.465,0,20.929,0,31.394,0c-0.833-0.833-1.667-1.667-2.5-2.5c0,7.844,0,15.688,0,23.532
			c0,3.225,5,3.225,5,0c0-7.844,0-15.688,0-23.532c0-1.362-1.138-2.5-2.5-2.5c-10.465,0-20.929,0-31.394,0
			c-1.363,0-2.5,1.138-2.5,2.5c0,7.844,0,15.688,0,23.532c0,1.363,1.137,2.5,2.5,2.5c10.465,0,20.929,0,31.394,0
			C370.64,347.832,370.64,342.832,367.415,342.832z"/>
	</g>
</g>
<g>
	<path fill="#FFFFFF" d="M337.969,313.466l-0.174-49.247c0,0,7.745-36.341,18.766-39.634c6.862-2.05,8.763,23.612,8.763,23.612
		l0.318,65.053L337.969,313.466z"/>
	<g>
		<path fill="#FFFFFF" d="M340.469,313.466c-0.044-12.355-0.087-24.711-0.131-37.066c-0.01-2.905-0.021-5.811-0.03-8.716
			c-0.003-0.75,0.183-4.113-0.073-2.932c1.244-5.73,2.863-11.393,4.71-16.956c2.197-6.622,5.19-16.894,11.73-20.586
			c3.021-1.707,5.585,15.648,5.825,17.698c1.076,9.182,0.398,18.699,0.443,27.921c0.066,13.474,0.132,26.947,0.198,40.421
			c0.833-0.833,1.667-1.667,2.5-2.5c-9.225,0.072-18.448,0.144-27.673,0.216c-3.223,0.025-3.226,5.025,0,5
			c9.225-0.072,18.448-0.144,27.673-0.216c1.357-0.011,2.507-1.129,2.5-2.5c-0.055-11.174-0.109-22.348-0.164-33.521
			c-0.051-10.474,0.662-21.271-0.169-31.717c-0.537-6.743-2.706-32.501-14.78-24.428c-6.043,4.041-9.036,12.415-11.49,18.885
			c-2.458,6.481-4.34,13.208-5.901,19.958c-0.448,1.938-0.335,3.832-0.327,5.817c0.02,5.54,0.039,11.08,0.059,16.621
			c0.033,9.533,0.067,19.067,0.101,28.601C335.48,316.689,340.48,316.69,340.469,313.466z"/>
	</g>
</g>
<g>
	<g>
		<path fill="#FFFFFF" d="M354.825,368.955c0,6.589,0,13.179,0,19.768c0,6.448,10,6.448,10,0c0-6.589,0-13.179,0-19.768
			C364.825,362.507,354.825,362.507,354.825,368.955L354.825,368.955z"/>
	</g>
</g>
<g>
	<g>
		<path fill="#FFFFFF" d="M359.825,405.469c6.448,0,6.448-10,0-10S353.377,405.469,359.825,405.469L359.825,405.469z"/>
	</g>
</g>
<path fill="none" stroke="#FFFFFF" stroke-width="2" stroke-miterlimit="10" d="M177.344,265.09"/>
<g>
	<g>
		<path fill="#FFFFFF" d="M274.988,126.881c15.619,44.929-2.967,94.785-43.974,118.813c-41.29,24.195-95.104,14.715-126.659-20.756
			C72.479,189.108,72.457,134.02,102.49,97.21c30.363-37.212,84.512-46.707,126.396-24.142
			C250.308,84.608,266.708,104.075,274.988,126.881c1.092,3.006,5.925,1.709,4.822-1.329
			c-15.34-42.247-56.015-70.215-100.916-69.888c-45.204,0.329-85.649,30.862-99.326,73.667
			c-13.777,43.12,3.932,90.687,40.641,116.306c37.26,26.003,88.707,24.127,124.656-3.208
			c35.515-27.005,49.542-74.887,34.945-116.876C278.759,122.527,273.927,123.828,274.988,126.881z"/>
	</g>
</g>
<g>
	<path fill="#FFFFFF" d="M209.392,262.341l44.955,160.768c0,0,19.208,18.425,25.532,16.231c6.13-2.128,9.379-27.577,9.379-27.577
		l-66.622-154.776L209.392,262.341z"/>
	<g>
		<path fill="#FFFFFF" d="M204.571,263.67c13.38,47.852,26.761,95.702,40.141,143.553c1.604,5.736,3.208,11.472,4.812,17.207
			c0.545,1.949,2.41,3.275,3.84,4.567c3.115,2.815,6.367,5.46,9.698,8.014c5.068,3.885,13.68,10.38,20.239,6.158
			c6.256-4.026,7.868-14.32,9.242-20.982c0.815-3.954,2.584-9.344,0.922-13.204c-2.746-6.379-5.491-12.757-8.236-19.136
			c-19.425-45.128-38.85-90.256-58.275-135.384c-0.802-1.863-3.778-3.054-5.646-2.298c-4.415,1.785-8.83,3.569-13.244,5.354
			c-5.898,2.385-3.324,12.062,2.658,9.643c4.415-1.785,8.83-3.569,13.244-5.354c-1.882-0.766-3.764-1.532-5.646-2.298
			c19.692,45.749,39.383,91.497,59.076,137.245c2.506,5.822,5.012,11.645,7.518,17.467c-0.106-0.248-0.383-4.412-0.627-2.69
			c-0.175,1.224-0.373,2.443-0.578,3.662c-0.69,4.106-1.568,8.183-2.7,12.19c-0.57,2.021-1.822,6.552-3.197,7.437
			c1.256-0.809,0.349-0.254-1.267-1.004c-2.07-0.961-3.987-2.269-5.859-3.56c-3.207-2.211-6.187-4.749-9.111-7.315
			c-0.963-0.847-1.911-1.71-2.853-2.581c-1.539-1.426-0.063-0.412,0.43,1.351c-0.512-1.829-1.023-3.658-1.535-5.487
			c-2.924-10.457-5.848-20.914-8.772-31.371c-11.543-41.28-23.086-82.561-34.629-123.841
			C212.479,254.811,202.831,257.447,204.571,263.67z"/>
	</g>
</g>
<g>
	<path fill="#FFFFFF" d="M265.589,129.323c16.554,46.583-8.204,97.619-55.295,113.993c-47.092,16.375-98.685-8.113-115.238-54.696
		c-16.553-46.584,8.204-97.622,55.295-113.996C197.443,58.25,249.036,82.74,265.589,129.323z"/>
	<g>
		<path fill="#FFFFFF" d="M263.178,129.988c15.883,45.823-9.08,95.835-54.896,111.375c-45.777,15.526-96.682-10.409-111.717-56.073
			c-14.827-45.034,11.573-93.713,55.796-108.711C197.073,61.415,247.096,85.822,263.178,129.988
			c1.095,3.004,5.928,1.708,4.822-1.329c-15.416-42.335-59.07-67.392-103.411-60.268c-44.499,7.149-77.573,47.282-77.16,92.057
			c0.418,45.297,36.047,83.398,80.331,89.58c44.672,6.236,88.016-21.698,101.489-64.506c5.816-18.479,5.068-38.637-1.249-56.863
			C266.95,125.632,262.119,126.933,263.178,129.988z"/>
	</g>
</g>
<g>
	<g>
		<path fill="#D40050" d="M115.62,176.086c13.801-28.451,27.602-56.902,41.402-85.354c1.401-2.888-2.911-5.424-4.317-2.523
			c-13.8,28.452-27.602,56.903-41.402,85.354C109.901,176.451,114.212,178.987,115.62,176.086L115.62,176.086z"/>
	</g>
</g>
<g>
	<g>
		<path fill="#D40050" d="M141.619,161.021c7.271-14.625,14.542-29.252,21.813-43.878c1.431-2.877-2.882-5.411-4.317-2.523
			c-7.271,14.626-14.542,29.252-21.813,43.878C135.871,161.375,140.183,163.908,141.619,161.021L141.619,161.021z"/>
	</g>
</g>
<g>
	<g>
		<path fill="#D40050" d="M110.017,148.616c7.271-14.626,14.542-29.252,21.813-43.879c1.431-2.877-2.882-5.411-4.317-2.523
			c-7.271,14.626-14.542,29.252-21.813,43.879C104.269,148.97,108.581,151.504,110.017,148.616L110.017,148.616z"/>
	</g>
</g>
</svg>
