<?xml version="1.0" encoding="utf-8"?>
<!-- Generator: Adobe Illustrator 16.0.0, SVG Export Plug-In . SVG Version: 6.00 Build 0)  -->
<!DOCTYPE svg PUBLIC "-//W3C//DTD SVG 1.1//EN" "http://www.w3.org/Graphics/SVG/1.1/DTD/svg11.dtd">
<svg version="1.1" id="Layer_1" xmlns="http://www.w3.org/2000/svg" xmlns:xlink="http://www.w3.org/1999/xlink" x="0px" y="0px"
	 width="500px" height="500px" viewBox="0 0 500 500" enable-background="new 0 0 500 500" xml:space="preserve">
<circle fill="#B70258" cx="250" cy="250" r="250"/>
<g>
	<g>
		<g>
			<path fill="#FFFFFF" d="M288.161,171.998c-25.271,0-50.542,0-75.813,0c1.667,1.667,3.333,3.333,5,5c0-9.675,0-19.35,0-29.024
				c-1.667,1.667-3.333,3.333-5,5c25.271,0,50.542,0,75.813,0c-1.667-1.667-3.333-3.333-5-5c0,9.675,0,19.35,0,29.024
				c0,6.449,10,6.449,10,0c0-9.675,0-19.35,0-29.024c0-2.726-2.274-5-5-5c-25.271,0-50.542,0-75.813,0c-2.726,0-5,2.274-5,5
				c0,9.675,0,19.35,0,29.024c0,2.726,2.274,5,5,5c25.271,0,50.542,0,75.813,0C294.609,181.998,294.609,171.998,288.161,171.998z"/>
		</g>
	</g>
	<g>
		<line fill="#EAEAEA" x1="272.333" y1="268.104" x2="392.939" y2="268.104"/>
		<g>
			<path fill="#FFFFFF" d="M272.333,270.604c40.202,0,80.404,0,120.606,0c3.225,0,3.225-5,0-5c-40.202,0-80.404,0-120.606,0
				C269.108,265.604,269.108,270.604,272.333,270.604L272.333,270.604z"/>
		</g>
	</g>
	<g>
		<line fill="#EAEAEA" x1="107.57" y1="268.104" x2="227.333" y2="268.104"/>
		<g>
			<path fill="#FFFFFF" d="M107.57,270.604c39.921,0,79.842,0,119.763,0c3.224,0,3.224-5,0-5c-39.921,0-79.842,0-119.763,0
				C104.346,265.604,104.346,270.604,107.57,270.604L107.57,270.604z"/>
		</g>
	</g>
	<g>
		<g>
			<path fill="#F6F6F6" d="M272.698,271.489c-14.962,0-29.924,0-44.887,0c1.667,1.667,3.333,3.333,5,5c0-5.729,0-11.457,0-17.186
				c-1.667,1.667-3.333,3.333-5,5c14.962,0,29.925,0,44.887,0c-1.667-1.667-3.333-3.333-5-5c0,5.729,0,11.457,0,17.186
				c0,6.448,10,6.448,10,0c0-5.729,0-11.457,0-17.186c0-2.726-2.274-5-5-5c-14.962,0-29.924,0-44.887,0c-2.726,0-5,2.274-5,5
				c0,5.729,0,11.457,0,17.186c0,2.726,2.274,5,5,5c14.962,0,29.925,0,44.887,0C279.146,281.489,279.146,271.489,272.698,271.489z"
				/>
		</g>
	</g>
	<g>
		<g>
			<path fill="#FFFFFF" d="M389,347.667c-0.446,8.294-9.089,7-14.848,7c-9.111,0-18.223,0-27.334,0c-29.726,0-59.451,0-89.176,0
				c-46.689,0-93.378,0-140.067,0c-8.758,0-7.243-9.946-7.243-15.785c0-12.166,0-24.332,0-36.498c0-30.654,0-61.31,0-91.965
				c0-6.67,0-13.34,0-20.01c0-8.048,8.36-7.075,13.777-7.075c22.205,0,44.41,0,66.615,0c58.348,0,116.695,0,175.043,0
				c5.246,0,10.492,0,15.738,0c8.548,0,7.493,8.524,7.493,14.371c0,27.899,0,55.798,0,83.697C389,303.49,389,325.578,389,347.667
				c0,6.448,10,6.448,10,0c0-49.009,0-98.018,0-147.027c0-8.754,1.143-18.704-7.39-24.309c-5.486-3.604-11.631-2.998-17.83-2.998
				c-22.938,0-45.875,0-68.812,0c-57.797,0-115.594,0-173.391,0c-4.688,0-9.377,0-14.066,0c-8.39,0-15.583,6.098-16.93,14.363
				c-0.365,2.238-0.249,4.535-0.249,6.794c0,26.329,0,52.659,0,78.988c0,24.201,0,48.403,0,72.605
				c0,10.625,7.256,18.582,18.1,18.582c5.924,0,11.848,0,17.772,0c58.96,0,117.921,0,176.882,0c18.223,0,36.445,0,54.668,0
				c4.224,0,8.447,0,12.67,0c10.142,0,18.014-6.574,18.575-17C399.348,341.22,389.346,341.254,389,347.667z"/>
		</g>
	</g>
</g>
</svg>
