<?xml version="1.0" encoding="utf-8"?>
<!-- Generator: Adobe Illustrator 16.0.0, SVG Export Plug-In . SVG Version: 6.00 Build 0)  -->
<!DOCTYPE svg PUBLIC "-//W3C//DTD SVG 1.1//EN" "http://www.w3.org/Graphics/SVG/1.1/DTD/svg11.dtd">
<svg version="1.1" id="Layer_1" xmlns="http://www.w3.org/2000/svg" xmlns:xlink="http://www.w3.org/1999/xlink" x="0px" y="0px"
	 width="500px" height="500px" viewBox="0 0 500 500" enable-background="new 0 0 500 500" xml:space="preserve">
<circle fill="#B70258" cx="250" cy="250" r="250"/>
<g>
	<g>
		<g>
			<path fill="#FFFFFF" d="M380.304,264.426c-2.239-6.916-2.447-14.386-2.945-21.611c-0.59-8.566-0.713-17.159-0.552-25.741
				c0.061-3.226-4.939-3.22-5,0c-0.173,9.19,0.043,18.364,0.676,27.534c0.488,7.096,0.803,14.362,2.999,21.149
				C376.471,268.81,381.299,267.503,380.304,264.426L380.304,264.426z"/>
		</g>
	</g>
	<g>
		<g>
			<path fill="#FFFFFF" d="M439.64,323.554c-1.785-11.565-2.781-23.221-5.629-34.605c-1.269-5.07-2.983-10.166-6.325-14.254
				c-4.412-5.396-13.949-5.99-20.286-6.639c-6.413-0.656-6.351,9.351,0,10c4.763,0.487,11.604,0.846,13.976,4.975
				c2.403,4.184,3.285,9.459,4.258,14.119c2.004,9.607,2.869,19.377,4.364,29.063C430.979,332.569,440.613,329.859,439.64,323.554
				L439.64,323.554z"/>
		</g>
	</g>
	<g>
		<g>
			<path fill="#FFFFFF" d="M382.9,199.534c-5.538,9.431-14.443,23.474-27.031,23.142c-7.83-0.207-14.642-7.973-19.011-13.63
				c-13.965-18.084-21.279-42.542-21.819-65.183c-0.133-5.586,0.49-11.048,1.275-16.564c0.77-5.407,1.319-10.417,4.306-15.093
				c2.921-4.575,6.601-8.747,10.559-12.448c3.875-3.624,8.274-4.603,13.386-5.394c10.633-1.646,21.374-1.292,31.832,1.184
				c5.537,1.311,11.232,3.368,15.292,7.497c5.024,5.109,7.521,12.028,8.282,19.019c3.82,35.064,3.723,70.577,4.281,105.807
				c0.354,22.347,0.422,44.702,0.631,67.05c0.136,14.493,0.271,28.986,0.406,43.479c0.833-0.833,1.667-1.667,2.5-2.5
				c-9.048-0.296-22.774-6.694-26.365-15.636c-2.287-5.698-2.314-12.376-2.419-18.414c-0.351-20.221,2.204-40.557,4.393-60.621
				c2.456-22.521,5.263-45.021,6.852-67.625c0.726-10.318,1.704-21.065,0.082-31.325c-0.706-4.464-2.17-9.859-5.16-13.328
				c-2.766-3.208-6.679-5.568-10.295-7.671c-6.054-3.521-12.594-6.246-19.112-8.773c-2.403-0.932-8.118-4.297-10.891-3.4
				c-16.113,5.212-29.849,20.747-34.099,36.964c-0.817,3.122,4.005,4.446,4.822,1.329c3.313-12.648,12.483-23.433,23.499-30.219
				c2.691-1.659,4.893-3.56,7.459-2.7c3.291,1.103,6.544,2.316,9.773,3.587c8.55,3.365,18.028,7.286,24.709,13.786
				c3.725,3.624,4.624,11.344,4.962,16.297c0.386,5.662,0.021,11.422-0.25,17.085c-2.067,43.349-10.639,86.228-11.707,129.635
				c-0.214,8.691-0.501,18.429,2.561,26.721c4.151,11.239,19.888,18.938,31.187,19.307c1.354,0.044,2.513-1.171,2.5-2.5
				c-0.408-43.679-0.554-87.366-1.402-131.039c-0.351-18.026-0.646-36.071-1.517-54.081c-0.564-11.681-1.143-23.636-2.925-35.205
				c-1.657-10.764-8.581-20.627-18.751-24.753c-9.4-3.813-19.773-5.208-29.871-4.908c-8.601,0.255-19.437,0.522-26.387,6.274
				c-7.036,5.823-14.647,14.262-16.701,23.399c-2.399,10.679-3.194,21.97-2.328,32.858c1.878,23.58,10.921,49.61,27.505,66.951
				c5.445,5.693,13.175,10.933,21.437,9.571c12.972-2.138,21.714-14.927,27.87-25.409
				C388.854,199.271,384.532,196.756,382.9,199.534L382.9,199.534z"/>
		</g>
	</g>
	<g>
		<g>
			<path fill="#FFFFFF" d="M319.082,186.664c1.355,15.527,2.712,31.054,4.067,46.581c1.08,12.365,0.679,24.439,0.379,36.868
				c-0.078,3.227,4.923,3.219,5,0c0.293-12.144,0.745-23.99-0.31-36.075c-1.379-15.792-2.758-31.583-4.137-47.375
				C323.804,183.478,318.802,183.451,319.082,186.664L319.082,186.664z"/>
		</g>
	</g>
	<path fill="none" stroke="#FFFFFF" stroke-miterlimit="10" d="M339.19,272.156"/>
	<g>
		<g>
			<path fill="#FFFFFF" d="M347.287,112.366c3.552-6.668,8.25-12.583,12.133-19.043c1.666-2.771-2.658-5.283-4.316-2.523
				c-3.884,6.459-8.582,12.375-12.133,19.043C341.455,112.687,345.771,115.213,347.287,112.366L347.287,112.366z"/>
		</g>
	</g>
	<g>
		<g>
			<path fill="#FFFFFF" d="M321.925,266.772c-9.353,1.475-19.986,1.132-26.894,8.717c-6.355,6.979-4.279,18.291-5.275,26.869
				c-0.743,6.398,9.266,6.327,10,0c0.726-6.248-0.736-14.151,2.415-19.81c3.323-5.969,16.59-5.216,22.412-6.134
				C330.938,275.413,328.231,265.778,321.925,266.772L321.925,266.772z"/>
		</g>
	</g>
	<g>
		<g>
			<path fill="#FFFFFF" d="M338.088,218.711c0.176,10.675-0.1,21.334-0.855,31.985c-0.264,3.725,0.4,10.492-1.782,13.252
				c-2.855,3.612-8.615,4.519-12.861,5.234c-3.174,0.536-1.823,5.354,1.33,4.822c4.82-0.813,9.669-2.018,13.545-5.176
				c3.715-3.027,3.659-5.825,4.125-10.547c1.298-13.146,1.716-26.366,1.499-39.571C343.035,215.49,338.035,215.485,338.088,218.711
				L338.088,218.711z"/>
		</g>
	</g>
	<g>
		<g>
			<path fill="#FFFFFF" d="M184.573,134.621c4.086,18.974,0.371,39.688-6.397,57.628c-4.747,12.584-14.165,30.692-29.489,31.825
				c-15.731,1.162-25.325-16.896-30.054-29.183c-6.807-17.687-9.711-38.611-6.62-57.366c0.52-3.153-4.298-4.505-4.821-1.329
				c-3.472,21.062-0.059,44.224,8.158,63.857c5.798,13.852,16.569,29.435,33.337,29.021c16.693-0.411,27.346-18.903,33.005-32.265
				c8.221-19.41,12.18-42.729,7.703-63.518C188.715,130.141,183.896,131.477,184.573,134.621L184.573,134.621z"/>
		</g>
	</g>
	<g>
		<path fill="#FFFFFF" d="M108.415,143.46c-1.638-13.924,0-20.477,0-28.668v-2.047c2.047-3.276,7.781-20.477,11.876-13.925
			c5.324-5.323,9.829-10.647,16.791-12.695c0,1.229,1.229,2.867,1.229,4.095c1.229,0.41,2.457,0,3.277-0.819l6.552-2.457
			c0.82-0.41,1.639-0.41,2.458-0.41c-0.409,10.648,20.067,3.686,26.621,3.276c10.238-0.41,7.781,3.277,4.915,11.058
			c3.276,1.637,15.562,1.229,16.791,5.324c0.41,3.686-5.324,6.143-3.686,11.877c2.047,5.324,13.925,23.344,2.047,26.62
			c0-2.457-1.638-4.915-3.686-6.553l-3.276-1.638c-4.095-1.639-3.686-5.324-6.143-8.191c-5.733-5.324-15.972-1.638-21.706-6.144
			c-2.867-2.457-1.638-4.504-4.915-5.733c-4.505-2.047-11.467,0.819-16.381-0.818c2.047-1.229,4.504-3.277,4.915-5.734
			C128.481,109.059,108.415,143.46,108.415,143.46z"/>
		<g>
			<path fill="#FFFFFF" d="M113.415,143.46c-1.062-9.675-0.084-19.01,0-28.668c0.028-3.231-0.644,0.446-0.189-0.425
				c0.751-1.441,1.37-2.959,2.041-4.438c0.816-1.802,1.684-3.575,2.637-5.309c0.435-0.792,0.932-1.542,1.444-2.286
				c0.954-1.385-0.321,3.213-3.373-0.991c1.859,2.562,5.413,3.474,7.853,1.012c4.362-4.401,8.534-9.382,14.584-11.41
				c-2.05-1.164-4.1-2.328-6.15-3.492c0.277,1.424,0.951,2.671,1.229,4.095c0.458,2.354,2.713,3.407,4.821,3.671
				c4.522,0.566,7.7-3.494,12.286-3.686c-1.667-1.667-3.333-3.333-5-5c0.19,10.841,11.299,11.49,19.592,10.333
				c3.829-0.534,7.6-1.544,11.433-2.006c1.093-0.132,2.202-0.078,3.298-0.051c2.151,0.052-0.694,0.429-0.277-1.937
				c-0.401,2.277-1.527,4.514-2.333,6.666c-1.041,2.782,1.162,5.183,3.492,6.15c4.122,1.711,8.957,1.41,13.241,2.677
				c1.841,0.544-1.146,0.461,0.03-2.288c-0.483,1.129-1.371,2.155-2.04,3.178c-1.476,2.253-2.116,4.879-2.05,7.545
				c0.102,4.131,11.697,21.161,5.972,23.065c2.11,1.607,4.219,3.214,6.329,4.821c-0.789-6.2-4.045-9.812-9.438-12.508
				c-2.851-1.425-2.674-5.418-5.131-7.409c-2.776-2.25-5.583-3.584-9.108-4.244c-3.031-0.566-6.133-0.517-9.176-0.958
				c-1.512-0.22-3.375-0.559-4.294-1.925c-0.768-1.142-1.058-2.546-2.136-3.505c-6.329-5.626-13.313-1.532-20.494-3.349
				c0.398,3.046,0.796,6.092,1.194,9.139c3.4-2.213,6.005-4.771,7.212-8.723c0.964-3.157-1.647-6.286-4.821-6.329
				c-11.572-0.156-21.123,8.981-28.25,17.1c-5.119,5.832-9.817,12.258-13.746,18.959c-3.269,5.575,5.376,10.605,8.635,5.047
				c3.138-5.353,6.797-10.452,10.739-15.236c5.342-6.484,13.384-15.994,22.622-15.87c-1.607-2.11-3.214-4.219-4.821-6.329
				c-0.416,1.362-1.499,2.018-2.617,2.746c-3.5,2.277-3.188,8.03,1.194,9.139c2.741,0.693,5.404,0.759,8.212,0.561
				c2.058-0.146,6.918-1.432,7.989,0.792c2.529,5.253,7.863,7.204,13.325,7.79c2.617,0.28,5.258,0.349,7.848,0.833
				c3.413,0.638,3.973,2.644,5.344,5.467c1.076,2.215,3.094,3.846,5.232,4.94c1.716,0.878,4.188,1.536,4.485,3.873
				c0.384,3.021,2.929,5.952,6.329,4.821c15.834-5.266,6.114-22.894,1.414-32.863c-0.72-1.528,2.315-4.666,3.015-6.301
				c1.42-3.319,1.063-6.843-1.816-9.25c-5.071-4.24-12.034-2.669-17.766-5.048c1.164,2.05,2.328,4.1,3.492,6.15
				c1.465-3.915,4.054-8.846,1.81-12.976c-2.32-4.271-7.802-4.73-12.141-4.361c-2.491,0.211-20.977,4.438-21.025,1.673
				c-0.046-2.638-2.24-5.115-5-5c-2.436,0.102-4.378,0.81-6.617,1.65c-1.274,0.478-4.282,2.209-5.669,2.036
				c1.607,1.224,3.214,2.447,4.821,3.671c-0.277-1.423-0.951-2.671-1.229-4.095c-0.501-2.573-3.709-4.311-6.15-3.492
				c-7.883,2.642-13.279,8.211-18.998,13.981c2.618,0.337,5.235,0.675,7.853,1.012c-8.485-11.69-16.313,4.967-19.423,11.778
				c-2.03,4.444-1.723,8.375-2.036,13.237c-0.479,7.442-0.55,14.718,0.266,22.149C104.11,149.798,114.118,149.866,113.415,143.46z"
				/>
		</g>
	</g>
	<g>
		<g>
			<path fill="#FFFFFF" d="M113.978,260.444c-15.537,7.045-38.727,1.737-50.136,16.609c-5.171,6.74-6.366,16.449-7.188,24.614
				c-0.803,7.981-0.604,16.033-0.336,24.036c0.215,6.431,10.216,6.452,10,0c-0.457-13.632-1.93-30.75,5.617-42.818
				c3.705-5.926,14.224-6.393,20.364-7.549c9.172-1.729,18.092-2.343,26.727-6.258C124.891,266.42,119.803,257.803,113.978,260.444
				L113.978,260.444z"/>
		</g>
	</g>
	<g>
		<g>
			<path fill="#FFFFFF" d="M120.753,210.675c3.481,9.961,1.167,22.392-0.354,32.532c-0.655,4.371-1.449,8.721-2.33,13.052
				c-0.199,0.979-0.406,1.958-0.623,2.934c-0.355,1.6-8.655,3.207-10.164,3.596c-3.12,0.806-1.795,5.628,1.329,4.822
				c3.929-1.015,12.643-2.479,13.742-7.478c0.906-4.12,1.667-8.272,2.364-12.433c1.993-11.904,4.959-26.613,0.856-38.354
				C124.518,206.322,119.687,207.623,120.753,210.675L120.753,210.675z"/>
		</g>
	</g>
	<g>
		<g>
			<path fill="#FFFFFF" d="M181.391,263.961c-7.034-4.666-8.25-15.733-9.043-23.365c-0.884-8.504-0.689-17.091-0.426-25.623
				c0.1-3.226-4.901-3.216-5,0c-0.302,9.766-0.406,19.542,0.849,29.253c1.116,8.646,3.335,18.904,11.097,24.053
				C181.563,270.067,184.063,265.734,181.391,263.961L181.391,263.961z"/>
		</g>
	</g>
	<g>
		<g>
			<path fill="#FFFFFF" d="M229.974,298.064c-0.273-10.32-2.26-23.264-11.935-29.11c-5.145-3.108-11.313-3.462-17.106-4.18
				c-6.226-0.771-14.262-0.203-19.87-3.329c-5.638-3.143-10.679,5.495-5.047,8.635c9.792,5.458,22.344,3.311,32.967,5.973
				c6.165,1.544,7.047,5.106,9.335,10.35c0.823,1.885,0.718,1.098,1.129,2.807c0.676,2.806,0.451,5.998,0.527,8.855
				C220.144,304.5,230.145,304.517,229.974,298.064L229.974,298.064z"/>
		</g>
	</g>
	<g>
		<g>
			<path fill="#FFFFFF" d="M107.186,148.742c-12.812-0.94-7.015,29.173,0.376,33.326c2.814,1.582,5.334-2.738,2.523-4.317
				c-4.098-2.302-7.813-24.369-2.899-24.008C110.404,153.979,110.382,148.977,107.186,148.742L107.186,148.742z"/>
		</g>
	</g>
	<g>
		<g>
			<path fill="#FFFFFF" d="M113.243,264.272c1.182,14.316,17.059,19.133,29.176,20.587c15.737,1.889,31.128-1.467,39.936-15.645
				c3.414-5.494-5.24-10.511-8.635-5.047c-6.335,10.198-17,11.757-28.182,11.012c-6.274-0.418-21.606-2.57-22.295-10.907
				C122.716,257.894,112.712,257.842,113.243,264.272L113.243,264.272z"/>
		</g>
	</g>
	<g>
		<g>
			<path fill="#FFFFFF" d="M295.941,263.042c-0.167,13.399-4.088,26.364-11.058,37.787c-5.393,8.839-14.271,18.368-25.348,18.686
				c-10.619,0.305-19.084-10.228-24.138-18.253c-6.872-10.913-10.656-23.933-11.379-36.757
				c-1.165-20.66,10.479-50.964,34.628-52.587c10.693-0.718,19.992,7.262,25.945,15.307
				C292.196,237.5,295.781,250.376,295.941,263.042c0.041,3.222,5.041,3.226,5,0c-0.271-21.474-10.635-46.081-31.845-54.435
				c-19.966-7.864-38.046,10.708-45.137,27.449c-9.623,22.721-4.639,49.963,8.68,70.146c5.235,7.935,12.654,15.337,22.104,17.748
				c8.989,2.295,17.716-2.388,24.275-8.147c14.471-12.707,21.688-33.961,21.923-52.762
				C300.981,259.816,295.981,259.82,295.941,263.042z"/>
		</g>
	</g>
	<g>
		<g>
			<path fill="#FFFFFF" d="M236.522,347.258c-11.906,4.87-28.894,2.992-37.215,14.385c-4.009,5.488-3.051,10.937-2.928,17.302
				c0.183,9.411,0,18.846,0,28.259c0,6.448,10,6.448,10,0c0-7.536,0-15.071,0-22.607c0-3.231,0.046-6.454-0.189-9.68
				c-0.143-1.955-0.563-4.157,0.284-6.013c2.386-5.231,8.99-6.256,13.982-7.236c6.273-1.233,12.789-2.339,18.725-4.767
				C245.065,354.493,242.493,344.815,236.522,347.258L236.522,347.258z"/>
		</g>
	</g>
	<g>
		<g>
			<path fill="#FFFFFF" d="M243.519,317.92c-0.012,5.592-0.139,11.181-0.388,16.767c-0.29,6.499,0.024,12.034-6.542,15.233
				c-2.898,1.413-0.362,5.725,2.523,4.318c5.975-2.912,8.128-7.047,8.652-13.49c0.616-7.583,0.738-15.223,0.754-22.828
				C248.526,314.695,243.526,314.696,243.519,317.92L243.519,317.92z"/>
		</g>
	</g>
	<g>
		<g>
			<path fill="#FFFFFF" d="M274.473,356.98c5.769,3.69,12.863,4.717,19.502,5.744c5.493,0.851,12.446,0.777,16.629,4.886
				c4.531,4.452,5.066,12.264,5.34,18.199c0.322,6.998-0.344,13.994-0.387,20.99c-0.039,6.45,9.961,6.446,10,0
				c0.087-14.232,3.021-31.154-5.712-43.602c-9.431-13.442-27.881-6.892-40.325-14.853
				C274.069,344.859,269.06,353.518,274.473,356.98L274.473,356.98z"/>
		</g>
	</g>
	<g>
		<g>
			<path fill="#FFFFFF" d="M270.551,319.152c0.028,7.902,0.38,15.797,0.408,23.699c0.018,4.771,0.238,8.406,4.27,11.579
				c2.503,1.971,6.067-1.542,3.535-3.535c-3.733-2.938-2.787-7.528-2.831-11.817c-0.067-6.644-0.357-13.281-0.382-19.926
				C275.539,315.929,270.539,315.928,270.551,319.152L270.551,319.152z"/>
		</g>
	</g>
	<path fill="none" stroke="#FFFFFF" stroke-miterlimit="10" d="M254.519,372.031"/>
	<g>
		<g>
			<path fill="#FFFFFF" d="M234.953,352.781c2.442,8.014,11.286,9.755,18.604,10.434c8.935,0.828,18.326,0.035,25.382-5.924
				c4.934-4.166-2.177-11.203-7.07-7.07c-4.361,3.683-10.829,3.286-16.225,3.119c-2.485-0.076-10.127-0.191-11.049-3.217
				C242.722,343.973,233.068,346.597,234.953,352.781L234.953,352.781z"/>
		</g>
	</g>
	<g>
		<path fill="#FFFFFF" d="M232.96,303.9l-6.063-10.925l-1.354-51.997c22.865,0,45.731,0,68.599,0l-0.687,49.093l-6.743,13.828
			l13.982,0.196l-1.024-53.492c0-30.783-20.393-44.153-40.761-44.153c-20.367,0-40.328,11.622-40.328,42.404l-0.41,55.223
			L232.96,303.9z"/>
		<g>
			<path fill="#FFFFFF" d="M237.277,301.377c-1.4-2.523-2.8-5.046-4.201-7.569c-0.604-1.089-1.209-2.179-1.814-3.268
				c1.051,1.893,0.657,3.297,0.612,1.581c-0.138-5.315-0.277-10.63-0.415-15.945c-0.306-11.732-0.611-23.465-0.917-35.197
				c-1.667,1.667-3.333,3.333-5,5c22.866,0,45.732,0,68.599,0c-1.667-1.667-3.333-3.333-5-5c-0.164,11.723-0.328,23.447-0.492,35.17
				c-0.064,4.605-0.129,9.212-0.192,13.817c0.033-2.425,0.979-3.029-0.075-0.867c-0.731,1.5-1.464,3-2.195,4.501
				c-1.264,2.592-2.528,5.185-3.792,7.776c-1.644,3.371,0.326,7.468,4.317,7.523c4.661,0.065,9.321,0.131,13.982,0.196
				c2.687,0.038,5.052-2.303,5-5c-0.229-11.995-0.459-23.989-0.689-35.984c-0.281-14.718,0.584-29.778-6.084-43.365
				c-8.702-17.731-29.105-25.331-47.85-22.708c-20.66,2.891-34.743,18.46-37.026,39.024c-1.202,10.829-0.569,22.04-0.65,32.912
				c-0.075,10.034-0.149,20.069-0.224,30.104c-0.02,2.701,2.29,5.033,5,5c4.93-0.06,9.859-0.119,14.789-0.179
				c6.444-0.078,6.452-10.078,0-10c-4.93,0.06-9.859,0.119-14.789,0.179c1.667,1.667,3.333,3.333,5,5
				c0.089-11.992,0.178-23.984,0.267-35.976c0.103-13.793-1.607-29.397,5.59-41.733c9.166-15.709,32.097-18.593,47.3-10.826
				c15.895,8.12,18.151,25.11,18.458,41.141c0.303,15.804,0.605,31.608,0.908,47.412c1.667-1.667,3.333-3.333,5-5
				c-4.661-0.065-9.321-0.131-13.982-0.196c1.439,2.508,2.878,5.016,4.317,7.523c2.335-4.788,5.832-9.878,7.247-15.022
				c1.117-4.061,0.291-9.331,0.349-13.472c0.172-12.316,0.345-24.634,0.517-36.951c0.038-2.726-2.304-5-5-5
				c-22.866,0-45.732,0-68.599,0c-2.672,0-5.071,2.274-5,5c0.313,12.041,0.627,24.081,0.94,36.121
				c0.135,5.163,0.269,10.326,0.403,15.489c0.121,4.636,4.573,9.902,6.756,13.835C231.772,312.063,240.409,307.02,237.277,301.377z"
				/>
		</g>
	</g>
	<polygon fill="#FFFFFF" stroke="#FFFFFF" stroke-miterlimit="10" points="312.878,145.045 314.567,120.933 321.324,106.189 
		338.679,93.75 365.556,91.753 383.677,95.132 396.885,105.115 405.179,158.406 407.789,338.398 389.974,332.715 381.373,325.344 
		376.767,310.907 376.92,290.481 378.916,259.306 374.463,225.366 373.694,217.994 385.06,203.404 388.745,165.625 387.977,140.438 
		378.916,126.769 360.948,117.094 345.538,111.516 321.324,129.688 	"/>
	<polyline fill="#FFFFFF" stroke="#FFFFFF" stroke-miterlimit="10" points="322.553,192.808 341.75,220.452 335.914,264.221 
		328.792,269.499 	"/>
	<g>
		<g>
			<path fill="#FFFFFF" d="M319.652,272.259c1.238,27.037,34.063,39.248,57.054,31.495c6.077-2.049,3.47-11.709-2.658-9.643
				c-16.269,5.485-43.456-1.346-44.396-21.853C329.358,265.838,319.357,265.81,319.652,272.259L319.652,272.259z"/>
		</g>
	</g>
</g>
</svg>
