<?xml version="1.0" encoding="utf-8"?>
<!-- Generator: Adobe Illustrator 16.0.0, SVG Export Plug-In . SVG Version: 6.00 Build 0)  -->
<!DOCTYPE svg PUBLIC "-//W3C//DTD SVG 1.1//EN" "http://www.w3.org/Graphics/SVG/1.1/DTD/svg11.dtd">
<svg version="1.1" id="Layer_1" xmlns="http://www.w3.org/2000/svg" xmlns:xlink="http://www.w3.org/1999/xlink" x="0px" y="0px"
	 width="500px" height="500px" viewBox="0 0 500 500" enable-background="new 0 0 500 500" xml:space="preserve">
<circle fill="#B70458" cx="251" cy="250" r="250"/>
<g>
	<g>
		<g>
			<path fill="#F7F8F8" d="M133.101,379.337c76.382,0,152.764,0,229.146,0c6.448,0,6.448-10,0-10c-13.996,0-27.993,0-41.989,0
				c-6.448,0-6.448,10,0,10c13.996,0,27.993,0,41.989,0c6.448,0,6.448-10,0-10c-76.382,0-152.764,0-229.146,0
				C126.652,369.337,126.652,379.337,133.101,379.337L133.101,379.337z"/>
		</g>
	</g>
	<g>
		<g>
			<path fill="#F7F8F8" d="M128.101,322.301c0,16.432,0,32.862,0,49.294c0,6.448,10,6.448,10,0c0-16.432,0-32.862,0-49.294
				C138.101,315.853,128.101,315.853,128.101,322.301L128.101,322.301z"/>
		</g>
	</g>
	<g>
		<g>
			<path fill="#F7F8F8" d="M186.114,279.052c0,30.848,0,61.695,0,92.543c0,6.448,10,6.448,10,0c0-30.848,0-61.695,0-92.543
				C196.114,272.604,186.114,272.604,186.114,279.052L186.114,279.052z"/>
		</g>
	</g>
	<g>
		<g>
			<path fill="#F7F8F8" d="M242.732,299.979c0,23.872,0,47.744,0,71.616c0,6.448,10,6.448,10,0c0-23.872,0-47.744,0-71.616
				C252.732,293.53,242.732,293.53,242.732,299.979L242.732,299.979z"/>
		</g>
	</g>
	<g>
		<g>
			<path fill="#F7F8F8" d="M299.35,239.757c0,43.946,0,87.892,0,131.838c0,6.448,10,6.448,10,0c0-43.946,0-87.892,0-131.838
				C309.35,233.308,299.35,233.308,299.35,239.757L299.35,239.757z"/>
		</g>
	</g>
	<g>
		<g>
			<path fill="#F7F8F8" d="M357.363,179.65c0,64.756,0,129.513,0,194.27c0,6.448,10,6.448,10,0c0-64.757,0-129.513,0-194.27
				C367.363,173.202,357.363,173.202,357.363,179.65L357.363,179.65z"/>
		</g>
	</g>
	<g>
		<g>
			<path fill="#F7F8F8" d="M189.012,274.176c-19.348,14.524-38.693,29.053-58.041,43.577c-5.09,3.821-0.115,12.511,5.047,8.635
				c19.348-14.524,38.693-29.053,58.041-43.577C199.149,278.989,194.174,270.3,189.012,274.176L189.012,274.176z"/>
		</g>
	</g>
	<g>
		<g>
			<path fill="#F7F8F8" d="M249.377,294.002c-18.468-6.741-36.935-13.485-55.403-20.228c-6.072-2.217-8.665,7.45-2.658,9.643
				c18.468,6.742,36.936,13.486,55.403,20.228C252.791,305.861,255.384,296.194,249.377,294.002L249.377,294.002z"/>
		</g>
	</g>
	<g>
		<g>
			<path fill="#F7F8F8" d="M358.362,175.766c-37.9,39.296-75.8,78.591-113.7,117.887c-4.476,4.641,2.587,11.72,7.07,7.07
				c37.9-39.295,75.801-78.591,113.7-117.886C369.909,178.197,362.846,171.118,358.362,175.766L358.362,175.766z"/>
		</g>
	</g>
	<g>
		<g>
			<g>
				<path fill="#F7F8F8" d="M346.504,132.518c-38.192,39.607-76.022,79.566-113.85,119.521c1.622-0.428,3.243-0.856,4.865-1.285
					c-17.688-6.453-35.418-12.788-53.147-19.127c-1.456-0.52-3.106-1.381-4.695-1.381c-3.238,0-6.396,3.589-8.821,5.411
					c-3.661,2.749-7.322,5.498-10.983,8.246c-13.587,10.201-27.173,20.402-40.76,30.602c-5.09,3.821-0.115,12.511,5.047,8.635
					c19.348-14.524,38.694-29.051,58.041-43.576c-1.284,0.168-2.568,0.336-3.853,0.504c18.853,6.733,37.706,13.469,56.513,20.33
					c1.604,0.585,3.723-0.08,4.865-1.286c37.827-39.955,75.657-79.914,113.849-119.521
					C358.05,134.948,350.986,127.869,346.504,132.518L346.504,132.518z"/>
			</g>
		</g>
	</g>
	<g>
		<path fill="#FFFFFF" d="M359.697,125.664c-15.941,8.836-31.883,17.674-47.823,26.51l16.76,3.713l6.865,18.637
			C343.583,158.359,359.697,125.664,359.697,125.664z"/>
		<g>
			<path fill="#F7F8F8" d="M358.436,123.505c-15.941,8.836-31.882,17.673-47.823,26.51c-1.841,1.021-1.524,4.099,0.597,4.569
				c5.587,1.238,11.174,2.475,16.76,3.713c-0.582-0.582-1.164-1.164-1.746-1.746c2.289,6.212,4.577,12.424,6.865,18.637
				c0.685,1.858,3.518,2.703,4.57,0.597c8.126-16.256,16.163-32.558,24.197-48.859c1.421-2.881-2.892-5.416-4.316-2.523
				c-8.035,16.302-16.072,32.603-24.199,48.859c1.523,0.199,3.047,0.398,4.57,0.597c-2.289-6.212-4.577-12.424-6.865-18.637
				c-0.968-2.625-5.956-2.679-8.208-3.178c-3.433-0.76-6.865-1.521-10.298-2.281c0.198,1.523,0.397,3.046,0.597,4.569
				c15.941-8.836,31.882-17.674,47.823-26.51C363.779,126.26,361.258,121.941,358.436,123.505z"/>
		</g>
	</g>
</g>
</svg>
