<?xml version="1.0" encoding="utf-8"?>
<!-- Generator: Adobe Illustrator 16.0.0, SVG Export Plug-In . SVG Version: 6.00 Build 0)  -->
<!DOCTYPE svg PUBLIC "-//W3C//DTD SVG 1.1//EN" "http://www.w3.org/Graphics/SVG/1.1/DTD/svg11.dtd">
<svg version="1.1" id="Layer_1" xmlns="http://www.w3.org/2000/svg" xmlns:xlink="http://www.w3.org/1999/xlink" x="0px" y="0px"
	 width="500px" height="500px" viewBox="0 0 500 500" enable-background="new 0 0 500 500" xml:space="preserve">
<circle fill="#B70258" cx="250.458" cy="251" r="250"/>
<g>
	<rect x="105.703" y="108.895" fill="#FFFFFF" width="288.811" height="288.811"/>
	<rect x="240.367" y="107.895" fill="#B70258" width="18.182" height="290.21"/>
	<rect x="105.353" y="243.909" fill="#B70258" width="290.21" height="18.181"/>
	<g>
		<g>
			<path fill="#B70258" d="M258.843,247.713c3.908-8.276,7.615-16.64,12.232-24.557c3.704-6.349,9.585-15.324,16.179-17.614
				c-2.271,0.789,3.306-0.379,0.637-0.14c1.75-0.157,3.513-0.141,5.267-0.09c1.772,0.051,6.101,0.677,8.718,1.359
				c6.04,1.575,13.15,4.467,16.615,10.027c3.612,5.797,1.859,12.714-1.773,18.009c-1.858,2.71-4.02,4.167-6.725,5.814
				c-2.09,1.272-4.805,2.189-8.435,3.239c-12.343,3.571-28.932,3.472-42.779,1.157c-4.508-0.753-10.185,1.141-13.489,4.246
				c-2.991,2.81-1.892,5.847,2.047,6.506c18.793,3.142,38.743,2.301,57.118-2.708c16.323-4.45,39.321-17.964,34.758-38.298
				c-3.729-16.617-28.656-20.707-42.511-20.334c-24.541,0.66-39.369,19.993-49.323,40.178c-2.24,4.542-4.308,9.166-6.47,13.745
				C237.043,256.441,256.236,253.233,258.843,247.713L258.843,247.713z"/>
		</g>
	</g>
	<g>
		<g>
			<path fill="#B70258" d="M257.081,243.697c-7.739-17.78-16.241-43.967-37.596-49.16c-16.843-4.095-39.77,2.792-50.606,16.366
				c-5.347,6.697-4.784,15.945-1.154,23.254c4.056,8.165,11.985,13.326,20.238,16.563c17.055,6.688,37.717,6.72,55.544,3.495
				c3.559-0.644,9.814-2.718,10.723-6.906c0.922-4.254-6.136-3.979-8.443-3.563c-6.005,1.086-10.631,1.374-17.682,1.338
				c-7.369-0.037-14.919-0.947-21.978-3.101c-6.687-2.04-12.719-5.329-17.263-10.717c-4.01-4.755-6.443-12.845-3.494-18.673
				c1.261-2.492,2.852-3.768,4.678-4.956c0.719-0.468,1.252-0.692,3.034-1.453c-1.49,0.635,2.487-0.728,3.142-0.905
				c-1.586,0.431,2.505-0.402,3.153-0.497c1.131-0.144,1.258-0.159,0.381-0.045c0.899-0.078,1.803-0.102,2.705-0.125
				c1.942-0.049,4.252,0.223,7.091,1.465c7.535,3.297,12.832,11.464,16.733,18.324c4.597,8.084,8.013,16.788,11.717,25.298
				C240.821,256.176,259.641,249.58,257.081,243.697L257.081,243.697z"/>
		</g>
	</g>
	<g>
		<g>
			<path fill="#B70258" d="M249.873,264.092c2.657,0.649-0.284-0.413,1.356,0.458c0.943,0.564,1.069,0.635,0.378,0.212
				c0.572,0.412,1.132,0.839,1.68,1.282c2.6,2.039,4.877,4.425,7.119,6.839c5.097,5.486,9.749,11.366,14.735,16.951
				c11.743,13.154,27.744,24.049,44.732,28.925c3.497,1.004,9.984,1.658,11.495-2.9c1.446-4.363-3.99-8.187-7.489-9.191
				c-15.635-4.487-27.475-14.97-37.008-26.145c-8.78-10.292-19.057-25.112-32.992-28.522c-3.535-0.865-9.953-1.753-11.495,2.9
				C240.969,259.168,246.336,263.226,249.873,264.092L249.873,264.092z"/>
		</g>
	</g>
	<g>
		<g>
			<path fill="#B70258" d="M231.582,257.909c-4.745,11.74-11.305,22.174-20.91,30.522c-7.824,6.801-18.446,10.848-28.995,13.12
				c-4.557,0.981-9.423,4.822-9.932,9.739c-0.498,4.815,4.273,6.791,8.329,5.917c15.314-3.299,29.532-9.668,41.573-19.759
				c12.431-10.419,21.155-24.338,27.188-39.267c1.717-4.248-1.038-8.121-5.537-8.192
				C238.372,249.912,233.41,253.384,231.582,257.909L231.582,257.909z"/>
		</g>
	</g>
</g>
</svg>
