<?xml version="1.0" encoding="utf-8"?>
<!-- Generator: Adobe Illustrator 16.0.0, SVG Export Plug-In . SVG Version: 6.00 Build 0)  -->
<!DOCTYPE svg PUBLIC "-//W3C//DTD SVG 1.1//EN" "http://www.w3.org/Graphics/SVG/1.1/DTD/svg11.dtd">
<svg version="1.1" id="Layer_1" xmlns="http://www.w3.org/2000/svg" xmlns:xlink="http://www.w3.org/1999/xlink" x="0px" y="0px"
	 width="500px" height="500px" viewBox="0 0 500 500" enable-background="new 0 0 500 500" xml:space="preserve">
<circle fill="#B70258" cx="249.999" cy="250" r="250"/>
<g>
	<g>
		<g>
			<path fill="#FFFFFF" d="M183.538,402.096c44.084,0,88.167,0,132.251,0c6.448,0,6.448-10,0-10c-44.084,0-88.167,0-132.251,0
				C177.089,392.096,177.089,402.096,183.538,402.096L183.538,402.096z"/>
		</g>
	</g>
	<g>
		<g>
			<path fill="#FFFFFF" d="M189.373,191.98c-2.782,48.851-5.564,97.701-8.347,146.553c-1.112,19.521-2.224,39.042-3.335,58.563
				c-0.367,6.445,9.635,6.41,10,0c2.782-48.851,5.564-97.701,8.347-146.553c1.112-19.521,2.224-39.042,3.335-58.563
				C199.74,185.535,189.738,185.57,189.373,191.98L189.373,191.98z"/>
		</g>
	</g>
	<g>
		<g>
			<path fill="#FFFFFF" d="M302.708,190.91c2.292,48.89,4.583,97.78,6.875,146.67c0.929,19.813,1.857,39.624,2.786,59.437
				c0.301,6.42,10.303,6.449,10,0c-2.292-48.89-4.583-97.78-6.875-146.671c-0.929-19.812-1.857-39.624-2.786-59.436
				C312.407,184.49,302.405,184.461,302.708,190.91L302.708,190.91z"/>
		</g>
	</g>
	<g>
		<g>
			<path fill="#FFFFFF" d="M245.675,191.267c0,49.019,0,98.038,0,147.057c0,19.313,0,38.626,0,57.939c0,6.448,10,6.448,10,0
				c0-49.019,0-98.038,0.001-147.057c0-19.313,0-38.626,0-57.939C255.675,184.818,245.675,184.818,245.675,191.267L245.675,191.267z
				"/>
		</g>
	</g>
	<g>
		<g>
			<path fill="#FFFFFF" d="M273.968,191.267c1.449,49.019,2.898,98.038,4.349,147.057c0.57,19.313,1.142,38.626,1.713,57.939
				c0.19,6.434,10.19,6.452,10,0c-1.449-49.019-2.898-98.038-4.349-147.057c-0.57-19.313-1.142-38.626-1.713-57.939
				C283.777,184.833,273.777,184.814,273.968,191.267L273.968,191.267z"/>
		</g>
	</g>
	<g>
		<g>
			<path fill="#FFFFFF" d="M217.046,191.267c-2.085,48.907-4.171,97.814-6.257,146.722c-0.833,19.544-1.667,39.087-2.5,58.631
				c-0.275,6.45,9.726,6.424,10,0c2.085-48.907,4.171-97.814,6.257-146.722c0.833-19.543,1.667-39.087,2.5-58.63
				C227.321,184.816,217.32,184.843,217.046,191.267L217.046,191.267z"/>
		</g>
	</g>
	<g>
		<g>
			<polygon fill="#FFFFFF" points="303.927,168.618 197.453,168.618 185.719,138.626 314.808,138.626 			"/>
			<g>
				<path fill="#FFFFFF" d="M303.927,163.618c-35.491,0-70.983,0-106.474,0c1.607,1.224,3.214,2.447,4.821,3.671
					c-3.911-9.997-7.822-19.994-11.733-29.991c-1.607,2.11-3.214,4.219-4.821,6.329c43.029,0,86.059,0,129.088,0
					c-1.607-2.11-3.214-4.219-4.821-6.329c-3.627,9.997-7.254,19.994-10.881,29.991c-2.205,6.077,7.461,8.671,9.643,2.658
					c3.627-9.997,7.254-19.994,10.881-29.991c1.125-3.099-1.767-6.329-4.821-6.329c-43.029,0-86.059,0-129.088,0
					c-2.993,0-6.028,3.246-4.821,6.329c3.911,9.997,7.822,19.994,11.733,29.991c0.823,2.104,2.419,3.671,4.821,3.671
					c35.491,0,70.983,0,106.474,0C310.375,173.618,310.375,163.618,303.927,163.618z"/>
			</g>
		</g>
		<g>
			<rect x="172.158" y="170.845" fill="#FFFFFF" width="157.101" height="19.938"/>
			<g>
				<path fill="#FFFFFF" d="M329.259,185.783c-49.083,0-98.166,0-147.249,0c-3.284,0-6.568,0-9.852,0c1.667,1.667,3.333,3.333,5,5
					c0-6.646,0-13.292,0-19.938c-1.667,1.667-3.333,3.333-5,5c49.083,0,98.166,0,147.249,0c3.284,0,6.567,0,9.852,0
					c-1.667-1.667-3.333-3.333-5-5c0,6.646,0,13.292,0,19.938c0,6.449,10,6.449,10,0c0-6.646,0-13.292,0-19.938c0-2.726-2.274-5-5-5
					c-49.083,0-98.166,0-147.249,0c-3.284,0-6.568,0-9.852,0c-2.726,0-5,2.274-5,5c0,6.646,0,13.292,0,19.938c0,2.726,2.274,5,5,5
					c49.083,0,98.166,0,147.249,0c3.284,0,6.567,0,9.852,0C335.707,195.783,335.707,185.783,329.259,185.783z"/>
			</g>
		</g>
		<g>
			<g>
				<path fill="#FFFFFF" d="M311.265,170.055c0.59-10.548,4.224-20.203,12.141-27.387c7.376-6.694,17.781-9.111,27.472-9.302
					c24.2-0.478,40.719,24.25,33.74,46.922c-3.266,10.608-13.146,18.235-24.201,18.432c-11.768,0.209-19.489-10.803-19.797-21.649
					c-0.288-10.183,11.393-22.681,21.417-14.536c4.202,3.414,5.686,9.884,3.276,14.721c-2.677,5.373-11.047,5.768-11.92-1.059
					c-0.182-1.413,0.151-2.467,0.834-3.668c0.436-0.57,0.999-0.956,1.689-1.157c1.106,0.285,1.462-0.128,1.065-1.239
					c-3.292,5.563,5.354,10.59,8.635,5.047c2.896-4.893,1.501-9.918-3.52-12.622c-5.071-2.731-11.13-0.863-14.988,2.952
					c-8.48,8.386-1.973,22.923,8.396,25.606c11.862,3.07,20.888-8.618,20.96-19.275c0.078-11.506-9.033-20.592-20.116-21.655
					c-11.212-1.075-20.44,7.692-24.218,17.394c-4.118,10.576-0.18,23.064,6.776,31.385c15.637,18.704,43.969,8.14,53.352-11.039
					c13.534-27.664-7.271-62.346-37.418-64.474c-12.861-0.908-26.633,2.552-36.758,10.696
					c-11.026,8.869-16.044,22.064-16.818,35.908C300.904,176.5,310.906,176.466,311.265,170.055L311.265,170.055z"/>
			</g>
		</g>
		<g>
			<g>
				<path fill="#FFFFFF" d="M198.787,170.055c-1.186-21.613-13.397-39.379-34.806-44.981c-21.88-5.725-43.987,3.065-53.673,23.933
					c-9.386,20.223-4.011,48.161,18.196,57.252c10.036,4.108,21.81,3.053,30.208-4.12c8.993-7.68,12.434-19.231,10.886-30.727
					c-1.862-13.833-16.212-24.195-29.781-20.349c-13.756,3.898-19.605,23.747-10.045,34.389c10.331,11.5,27.678,4.605,27.87-10.653
					c0.095-7.544-6.202-13.24-13.404-13.503c-7.76-0.284-12.29,7.402-8.542,13.884c3.225,5.58,11.868,0.546,8.635-5.047
					c-0.025,0.389-0.051,0.778-0.077,1.167c0.885-0.093,1.63,0.188,2.233,0.845c1.179,1.021,1.155,2.658,1.137,4.052
					c-0.03,2.379-2.124,4.959-4.499,5.25c-6.708,0.82-8.725-7.375-7.658-12.355c1.117-5.218,5.43-8.845,10.706-8.927
					c5.833-0.091,10.696,4.711,12.715,9.811c4.251,10.739-2.007,24.381-12.909,27.994c-10.659,3.532-21.363-3.83-26.488-12.713
					c-11.373-19.714,2.799-49.191,25.523-51.711c21.4-2.373,40.579,10.369,43.429,32.192c0.187,1.432,0.264,2.876,0.343,4.317
					C189.139,176.467,199.141,176.501,198.787,170.055L198.787,170.055z"/>
			</g>
		</g>
		<g>
			<g>
				<path fill="#FFFFFF" d="M192.182,402.096c44.084,0,88.167,0,132.251,0c6.448,0,6.448-10,0-10c-44.084,0-88.167,0-132.251,0
					C185.733,392.096,185.733,402.096,192.182,402.096L192.182,402.096z"/>
			</g>
		</g>
		<g>
			<g>
				<path fill="#FFFFFF" d="M189.373,191.98c-0.727,49.047-1.453,98.095-2.179,147.143c-0.287,19.324-0.573,38.648-0.859,57.973
					c-0.096,6.452,9.905,6.442,10,0c0.727-49.047,1.453-98.095,2.179-147.142c0.287-19.324,0.573-38.649,0.859-57.973
					C199.468,185.528,189.468,185.538,189.373,191.98L189.373,191.98z"/>
			</g>
		</g>
		<g>
			<g>
				<path fill="#FFFFFF" d="M302.708,190.91c4.324,48.694,8.649,97.389,12.974,146.082c1.777,20.009,3.554,40.017,5.331,60.024
					c0.565,6.371,10.57,6.426,10,0c-4.324-48.694-8.649-97.389-12.974-146.083c-1.777-20.007-3.554-40.016-5.331-60.023
					C312.143,184.54,302.138,184.484,302.708,190.91L302.708,190.91z"/>
			</g>
		</g>
		<g>
			<g>
				<path fill="#FFFFFF" d="M245.675,191.267c2.067,49.019,4.134,98.038,6.201,147.057c0.814,19.313,1.628,38.626,2.443,57.939
					c0.271,6.424,10.271,6.45,10,0c-2.066-49.019-4.134-98.038-6.201-147.057c-0.813-19.313-1.628-38.626-2.442-57.939
					C255.404,184.843,245.403,184.816,245.675,191.267L245.675,191.267z"/>
			</g>
		</g>
		<g>
			<g>
				<path fill="#FFFFFF" d="M273.968,191.267c3.502,48.822,7.005,97.645,10.507,146.468c1.399,19.509,2.799,39.019,4.198,58.528
					c0.459,6.394,10.462,6.438,10,0c-3.502-48.822-7.005-97.645-10.507-146.467c-1.399-19.51-2.799-39.019-4.198-58.529
					C283.509,184.873,273.506,184.829,273.968,191.267L273.968,191.267z"/>
			</g>
		</g>
		<g>
			<g>
				<path fill="#FFFFFF" d="M217.046,191.267c-0.027,48.907-0.054,97.814-0.081,146.722c-0.011,19.544-0.021,39.087-0.032,58.631
					c-0.003,6.449,9.997,6.448,10,0c0.027-48.907,0.054-97.814,0.081-146.722c0.011-19.543,0.021-39.087,0.032-58.63
					C227.05,184.818,217.05,184.818,217.046,191.267L217.046,191.267z"/>
			</g>
		</g>
		<g>
			<polygon fill="#FFFFFF" points="301.333,125.568 201.775,125.568 186.583,102.904 315.672,102.904 			"/>
			<g>
				<path fill="#FFFFFF" d="M301.333,120.568c-33.187,0-66.372,0-99.558,0c1.439,0.826,2.878,1.651,4.317,2.477
					c-5.064-7.555-10.127-15.109-15.191-22.664c-1.439,2.508-2.878,5.016-4.317,7.523c43.029,0,86.059,0,129.088,0
					c-1.439-2.508-2.878-5.016-4.317-7.523c-4.779,7.555-9.56,15.109-14.339,22.664c-3.459,5.467,5.198,10.479,8.635,5.047
					c4.779-7.555,9.56-15.109,14.339-22.664c2.05-3.24-0.629-7.523-4.317-7.523c-43.029,0-86.059,0-129.088,0
					c-3.613,0-6.469,4.313-4.317,7.523c3.174,4.735,6.348,9.471,9.522,14.206c2.151,3.208,5.527,10.935,10.104,10.935
					c9.161,0,18.321,0,27.481,0c23.986,0,47.973,0,71.959,0C307.781,130.568,307.781,120.568,301.333,120.568z"/>
			</g>
		</g>
	</g>
</g>
</svg>
