<?xml version="1.0" encoding="utf-8"?>
<!-- Generator: Adobe Illustrator 16.0.0, SVG Export Plug-In . SVG Version: 6.00 Build 0)  -->
<!DOCTYPE svg PUBLIC "-//W3C//DTD SVG 1.1//EN" "http://www.w3.org/Graphics/SVG/1.1/DTD/svg11.dtd">
<svg version="1.1" id="Layer_1" xmlns="http://www.w3.org/2000/svg" xmlns:xlink="http://www.w3.org/1999/xlink" x="0px" y="0px"
	 width="500px" height="500px" viewBox="0 0 500 500" enable-background="new 0 0 500 500" xml:space="preserve">
<circle fill="#C71555" cx="250" cy="250" r="250"/>
<g>
	<g>
		<g>
			<path fill="#FFFFFF" d="M84.771,233.396c0.343-15.381,11.55-27.73,23.241-36.47c17.792-13.301,39.307-21.24,60.578-26.951
				c53.676-14.411,113.366-14.74,167.203-1.01c20.565,5.245,41.69,12.984,58.643,26.097c11.468,8.871,21.429,21.199,20.738,36.414
				c-0.695,15.335-13.331,27.782-25.01,36.142c-18.291,13.095-40.125,20.859-61.74,26.407c-25.86,6.637-52.597,9.483-79.255,9.826
				c-20.536,0.264-41.224-2.413-61.531-5.203c-6.701-0.921-13.392-1.92-20.069-2.993c-1.061-0.17-2.121-0.343-3.18-0.521
				c-3.506-0.593-5.225,1.637-7.545,3.896c-2.682,2.611-5.364,5.223-8.046,7.834c-21.429,20.864-42.857,41.728-64.286,62.592
				c2.618,2.02,5.235,4.039,7.853,6.059c13.124-28.623,26.384-57.203,40.26-85.471c1.166-2.375,0.731-5.483-1.794-6.841
				c-8.813-4.737-17.077-10.693-24.556-17.311C97.59,258.209,85.086,245.888,84.771,233.396c-0.163-6.437-10.163-6.453-10,0
				c0.355,14.069,11.301,26.633,20.708,36.057c8.779,8.796,19.349,16.495,30.304,22.384c-0.598-2.28-1.196-4.561-1.794-6.841
				c-13.876,28.268-27.136,56.848-40.26,85.471c-2.289,4.991,3.567,10.231,7.853,6.059c25.004-24.345,50.008-48.689,75.013-73.035
				c-1.622,0.429-3.243,0.857-4.865,1.286c38.334,6.483,77.058,10.982,115.931,7.7c26.353-2.225,52.667-7.235,77.589-16.188
				c19.016-6.832,37.902-16.203,52.54-30.39c10.793-10.46,18.683-24.763,17.247-40.169c-1.484-15.935-12.143-28.929-24.379-38.394
				c-16.933-13.098-37.421-21.127-57.879-26.855c-26.313-7.367-53.851-10.509-81.115-11.065
				c-44.261-0.903-90.14,5.365-130.937,23.159c-24.754,10.797-55.28,30.552-55.956,60.823
				C74.626,239.849,84.627,239.835,84.771,233.396z"/>
		</g>
	</g>
	<g>
		<path fill="#FFFFFF" d="M345.021,279.59c-38.473-37.586-45.762-42.243-45.762-42.243H178.361c-6.87,0-12.439-5.706-12.439-12.743
			v-86.011c0-7.038,5.569-12.743,12.439-12.743h196.966c6.869,0,12.439,5.706,12.439,12.743v86.011
			c0,7.037-5.57,12.743-12.439,12.743h-31.24c0,0,0.387,7.787,22.391,44.159c-6.641-10.979,18.151,29.646,25.623,42.576
			C392.101,324.082,333.408,268.241,345.021,279.59z"/>
		<g>
			<path fill="#FFFFFF" d="M348.557,276.055c-13.453-13.133-26.89-26.421-41.219-38.612c-3.652-3.106-5.844-5.095-10.717-5.095
				c-27.365,0-54.729,0-82.094,0c-11.176,0-22.351,0-33.527,0c-5.068,0-9.757-1.637-10.078-7.743c-0.145-2.757,0-5.56,0-8.319
				c0-25.773,0-51.546,0-77.319c0-9.312,9.164-8.115,15.471-8.115c10.729,0,21.458,0,32.187,0c31.787,0,63.574,0,95.361,0
				c20.242,0,40.484,0,60.728,0c10.381,0,8.099,13.188,8.099,20.083c0,15.408,0,30.815,0,46.223c0,6.774,0,13.549,0,20.323
				c0,3.49,0.605,7.826-1.016,11.032c-2.918,5.767-13.391,3.835-18.58,3.835c-6.361,0-12.723,0-19.084,0c-2.596,0-5.172,2.277-5,5
				c0.228,3.607,1.979,7.117,3.367,10.368c5.402,12.64,12.624,24.572,19.706,36.314c2.878-1.683,5.757-3.364,8.635-5.047
				c-0.373-0.618-0.759-1.23-1.116-1.857c-2.618,2.02-5.235,4.04-7.853,6.06c-1.604-1.576-0.443-0.47,0.028,0.301
				c0.781,1.275,1.56,2.553,2.337,3.829c2.556,4.196,5.103,8.397,7.646,12.601c5.364,8.866,10.753,17.724,15.946,26.69
				c2.617-2.02,5.235-4.039,7.853-6.059c-8.202-7.805-16.41-15.604-24.623-23.398c-5.576-5.292-11.153-10.582-16.743-15.86
				c-2.34-2.21-5.219-6.162-8.246-7.537c-4.134-1.877-9.918,2.267-6.841,6.841c0.65,0.967,1.478,1.727,2.304,2.533
				C346.097,287.636,353.173,280.57,348.557,276.055c-0.574-0.563-2.173-2.642-0.739-0.51c-2.28,2.28-4.561,4.561-6.841,6.841
				c-2.158-0.979,0.226,0.335,1.117,1.169c1.871,1.748,3.732,3.508,5.595,5.267c5.646,5.331,11.278,10.677,16.91,16.021
				c7.993,7.587,15.982,15.179,23.967,22.774c4.099,3.9,10.741-1.071,7.853-6.059c-5.193-8.968-10.584-17.823-15.946-26.69
				c-2.542-4.204-5.091-8.404-7.646-12.601c-1.182-1.94-2.277-4.531-3.93-6.154c-4.07-4.001-10.682,1.103-7.853,6.06
				c0.357,0.626,0.743,1.239,1.116,1.856c3.331,5.51,11.975,0.49,8.635-5.047c-6.873-11.396-13.711-22.939-19.172-35.097
				c-0.792-1.763-1.598-3.772-2.235-5.83c-0.293-0.949-0.441-2.937-0.301-0.709c-1.667,1.667-3.333,3.333-5,5
				c5.704,0,11.409,0,17.113,0c5.977,0,12.205,0.516,18.124-0.473c14.912-2.489,13.442-19.23,13.442-30.339
				c0-15.475,0-30.949,0-46.423c0-6.465,0-12.93,0-19.395c0-3.235,0.259-6.63-0.252-9.842c-1.364-8.579-8.676-15.025-17.427-15.025
				c-1.93,0-3.859,0-5.789,0c-10.05,0-20.099,0-30.147,0c-31.566,0-63.134,0-94.7,0c-21.542,0-43.083,0-64.624,0
				c-12.209,0-18.905,8.995-18.905,20.521c0,13.078,0,26.157,0,39.235c0,13.47,0,26.939,0,40.41c0,5.276,0.39,10.278,3.864,14.649
				c3.867,4.864,9.334,6.682,15.337,6.682c26.727,0,53.454,0,80.181,0c9.686,0,19.371,0,29.057,0c2.621,0,5.241,0,7.862,0
				c3.067,0,1.201,0.487-0.357-0.595c0.263,0.183,0.518,0.377,0.771,0.571c-1.695-1.293,0.455,0.379,0.872,0.721
				c2.557,2.095,5.033,4.29,7.497,6.492c12.142,10.851,23.829,22.216,35.479,33.588
				C346.102,287.631,353.178,280.564,348.557,276.055z"/>
		</g>
	</g>
</g>
</svg>
