<?xml version="1.0" encoding="utf-8"?>
<!-- Generator: Adobe Illustrator 16.0.0, SVG Export Plug-In . SVG Version: 6.00 Build 0)  -->
<!DOCTYPE svg PUBLIC "-//W3C//DTD SVG 1.1//EN" "http://www.w3.org/Graphics/SVG/1.1/DTD/svg11.dtd">
<svg version="1.1" id="Layer_1" xmlns="http://www.w3.org/2000/svg" xmlns:xlink="http://www.w3.org/1999/xlink" x="0px" y="0px"
	 width="500px" height="500px" viewBox="0 0 500 500" enable-background="new 0 0 500 500" xml:space="preserve">
<circle fill="#B70258" cx="250" cy="250" r="250"/>
<g>
	<g>
		<rect x="82.867" y="221.496" fill="#FFFFFF" width="334.266" height="11.189"/>
		<g>
			<path fill="#FFFFFF" d="M417.133,227.686c-38.965,0-77.93,0-116.895,0c-60.526,0-121.053,0-181.579,0
				c-11.931,0-23.862,0-35.792,0c1.667,1.666,3.333,3.334,5,5c0-3.73,0-7.46,0-11.189c-1.667,1.667-3.333,3.333-5,5
				c38.965,0,77.93,0,116.895,0c60.526,0,121.052,0,181.578,0c11.932,0,23.862,0,35.793,0c-1.667-1.667-3.333-3.333-5-5
				c0,3.729,0,7.459,0,11.189c0,6.447,10,6.447,10,0c0-3.73,0-7.46,0-11.189c0-2.726-2.274-5-5-5c-38.965,0-77.93,0-116.895,0
				c-60.526,0-121.053,0-181.579,0c-11.931,0-23.862,0-35.792,0c-2.726,0-5,2.274-5,5c0,3.729,0,7.459,0,11.189c0,2.725,2.274,5,5,5
				c38.965,0,77.93,0,116.895,0c60.526,0,121.052,0,181.578,0c11.932,0,23.862,0,35.793,0
				C423.581,237.686,423.581,227.686,417.133,227.686z"/>
		</g>
	</g>
	<g>
		<rect x="102.245" y="174.643" fill="#FFFFFF" width="32.867" height="104.896"/>
		<g>
			<path fill="#FFFFFF" d="M135.112,274.539c-10.956,0-21.912,0-32.867,0c1.667,1.666,3.333,3.332,5,5c0-34.965,0-69.931,0-104.896
				c-1.667,1.667-3.333,3.333-5,5c10.956,0,21.912,0,32.867,0c-1.667-1.667-3.333-3.333-5-5c0,34.965,0,69.931,0,104.896
				c0,6.447,10,6.447,10,0c0-34.965,0-69.931,0-104.896c0-2.726-2.274-5-5-5c-10.956,0-21.912,0-32.867,0c-2.726,0-5,2.274-5,5
				c0,34.965,0,69.931,0,104.896c0,2.725,2.274,5,5,5c10.956,0,21.912,0,32.867,0C141.561,284.539,141.561,274.539,135.112,274.539z
				"/>
		</g>
	</g>
	<g>
		<rect x="364.092" y="174.461" fill="#FFFFFF" width="32.867" height="104.896"/>
		<g>
			<path fill="#FFFFFF" d="M396.959,274.357c-10.956,0-21.911,0-32.867,0c1.667,1.666,3.333,3.332,5,5c0-34.965,0-69.931,0-104.896
				c-1.667,1.667-3.333,3.333-5,5c10.956,0,21.911,0,32.867,0c-1.667-1.667-3.333-3.333-5-5c0,34.965,0,69.931,0,104.896
				c0,6.447,10,6.447,10,0c0-34.965,0-69.931,0-104.896c0-2.726-2.274-5-5-5c-10.956,0-21.911,0-32.867,0c-2.726,0-5,2.274-5,5
				c0,34.965,0,69.931,0,104.896c0,2.725,2.274,5,5,5c10.956,0,21.911,0,32.867,0C403.407,284.357,403.407,274.357,396.959,274.357z
				"/>
		</g>
	</g>
</g>
<g>
	<g>
		<rect x="252.701" y="328.289" fill="#FFFFFF" width="101.392" height="8.154"/>
		<g>
			<path fill="#FFFFFF" d="M354.093,333.943c-33.798,0-67.595,0-101.392,0c0.833,0.833,1.666,1.667,2.5,2.5c0-2.718,0-5.437,0-8.154
				c-0.834,0.833-1.667,1.667-2.5,2.5c33.797,0,67.594,0,101.392,0c-0.833-0.833-1.667-1.667-2.5-2.5c0,2.718,0,5.437,0,8.154
				c0,3.225,5,3.225,5,0c0-2.718,0-5.437,0-8.154c0-1.362-1.138-2.5-2.5-2.5c-33.798,0-67.595,0-101.392,0
				c-1.363,0-2.5,1.138-2.5,2.5c0,2.718,0,5.437,0,8.154c0,1.362,1.137,2.5,2.5,2.5c33.797,0,67.594,0,101.392,0
				C357.316,338.943,357.316,333.943,354.093,333.943z"/>
		</g>
	</g>
	<g>
		<rect x="262.873" y="301.977" fill="#FFFFFF" width="12.166" height="60.779"/>
		<g>
			<path fill="#FFFFFF" d="M275.039,357.756c-4.056,0-8.111,0-12.166,0c1.666,1.667,3.334,3.333,5,5c0-20.26,0-40.52,0-60.779
				c-1.666,1.667-3.334,3.333-5,5c4.055,0,8.11,0,12.166,0c-1.667-1.667-3.334-3.333-5-5c0,20.26,0,40.52,0,60.779
				c0,6.448,10,6.448,10,0c0-20.26,0-40.52,0-60.779c0-2.726-2.275-5-5-5c-4.056,0-8.111,0-12.166,0c-2.726,0-5,2.274-5,5
				c0,20.26,0,40.52,0,60.779c0,2.726,2.274,5,5,5c4.055,0,8.11,0,12.166,0C281.487,367.756,281.487,357.756,275.039,357.756z"/>
		</g>
	</g>
	<g>
		<rect x="332.539" y="301.977" fill="#FFFFFF" width="12.166" height="60.779"/>
		<g>
			<path fill="#FFFFFF" d="M344.705,357.756c-4.055,0-8.11,0-12.166,0c1.667,1.667,3.334,3.333,5,5c0-20.26,0-40.52,0-60.779
				c-1.666,1.667-3.333,3.333-5,5c4.056,0,8.111,0,12.166,0c-1.666-1.667-3.334-3.333-5-5c0,20.26,0,40.52,0,60.779
				c0,6.448,10,6.448,10,0c0-20.26,0-40.52,0-60.779c0-2.726-2.274-5-5-5c-4.055,0-8.11,0-12.166,0c-2.725,0-5,2.274-5,5
				c0,20.26,0,40.52,0,60.779c0,2.726,2.275,5,5,5c4.056,0,8.111,0,12.166,0C351.154,367.756,351.154,357.756,344.705,357.756z"/>
		</g>
	</g>
</g>
</svg>
