<?xml version="1.0" encoding="utf-8"?>
<!-- Generator: Adobe Illustrator 16.0.0, SVG Export Plug-In . SVG Version: 6.00 Build 0)  -->
<!DOCTYPE svg PUBLIC "-//W3C//DTD SVG 1.1//EN" "http://www.w3.org/Graphics/SVG/1.1/DTD/svg11.dtd">
<svg version="1.1" id="Layer_1" xmlns="http://www.w3.org/2000/svg" xmlns:xlink="http://www.w3.org/1999/xlink" x="0px" y="0px"
	 width="500px" height="500px" viewBox="0 0 500 500" enable-background="new 0 0 500 500" xml:space="preserve">
<circle fill="#B70258" cx="250" cy="250" r="250"/>
<path fill="none" stroke="#1A171B" stroke-miterlimit="10" d="M309.5,131.835"/>
<path fill="none" stroke="#1A171B" stroke-miterlimit="10" d="M200.167,131.835"/>
<g>
	<g>
		<g>
			<path fill="#FFFFFF" d="M333.28,336.403c-8.273-25.422-10.798-52.808-22.028-77.262c-4.349-9.469-12.012-17.739-18.593-25.691
				c-3.198-3.865-6.457-7.679-9.747-11.465c-2.006-2.307-3.385-4.359-6.814-4.359c1.439,2.508,2.878,5.016,4.317,7.523
				c9.244-21.66,18.487-43.32,27.731-64.98c1.771-4.152,3.099-6.925,2.621-11.682c-1.012-10.08-6.342-19.279-15.296-24.241
				c-20.591-11.411-46.095,6.217-46.701,28.412c1.667-1.667,3.333-3.333,5-5c-0.123,0-0.245,0-0.368,0c1.667,1.667,3.333,3.333,5,5
				c-0.558-21.602-23.175-37.542-43.67-28.97c-9.452,3.954-15.398,12.747-17.225,22.639c-0.985,5.336-0.396,8.093,1.512,12.685
				c9.012,21.686,18.023,43.373,27.034,65.059c0.429-1.622,0.857-3.243,1.286-4.865c-10.395,10.185-20.834,20.623-29.856,32.06
				c-12.639,16.021-16.76,38.454-21.941,57.721c-2.582,9.602-5.002,19.338-8.579,28.631c-2.725,7.081-6.074,13.941-9.344,20.781
				c-7.777,16.267-15.996,32.325-24.302,48.327c-1.812,3.49-3.628,6.978-5.463,10.455c-1.385,2.625-0.34,6.761,2.988,7.345
				c8.85,1.553,17.109,4.288,25.633,7.004c10.273,3.273,21.047,3.971,31.705,5.087c21.924,2.298,43.786,5.79,65.869,5.825
				c23.623,0.038,46.781-1.42,69.936-6.31c16.122-3.405,32.178-7.171,48.173-11.128c3.168-0.783,4.563-4.602,2.988-7.345
				c-6.181-10.766-12.193-21.63-18.104-32.545C348.55,369.43,339.006,353.369,333.28,336.403c-2.05-6.076-11.71-3.47-9.643,2.658
				c5.77,17.099,15.168,33.265,23.688,49.094c6.242,11.6,12.628,23.128,19.187,34.551c0.996-2.448,1.992-4.896,2.988-7.345
				c-14.997,3.71-30.05,7.215-45.149,10.481c-22.916,4.956-45.667,6.602-69.077,6.6c-21.308-0.001-42.37-3.12-63.516-5.441
				c-10.995-1.207-21.994-1.844-32.624-5.114c-8.556-2.633-16.769-5.449-25.633-7.004c0.996,2.448,1.992,4.896,2.988,7.345
				c13.708-25.987,27.736-52.132,39.039-79.272c8.057-19.345,11.576-40.465,17.971-60.381c2.687-8.366,5.616-17.201,11.055-24.237
				c5.621-7.273,12.084-13.938,18.456-20.547c3.749-3.887,7.543-7.733,11.4-11.513c1.149-1.126,1.941-3.287,1.286-4.865
				c-7.802-18.776-15.604-37.552-23.406-56.328c-1.557-3.747-3.114-7.495-4.671-11.242c-1.754-4.223,0.16-9.161,2.323-13.173
				c4.549-8.438,14.326-10.619,23.038-8.266c9.15,2.471,15.184,10.996,15.423,20.254c0.07,2.724,2.221,5,5,5
				c0.123,0,0.245,0,0.368,0c2.782,0,4.926-2.276,5-5c0.512-18.737,27.097-30.602,38.569-13.51
				c2.381,3.547,3.391,7.812,3.642,12.021c-0.013-0.222,0.97-1.764,0.545-0.769c-0.201,0.472-0.402,0.943-0.604,1.415
				c-1.63,3.82-3.261,7.64-4.891,11.459c-8.084,18.942-16.168,37.885-24.252,56.827c-1.433,3.357,0.168,7.523,4.317,7.523
				c0.247,0,0.495,0,0.742,0c-1.179-0.488-2.357-0.977-3.535-1.464c4.682,5.285,9.25,10.673,13.739,16.122
				c6.115,7.424,12.533,14.974,16.443,23.84c10.176,23.069,12.383,49.071,20.15,72.938
				C325.624,345.166,335.282,342.553,333.28,336.403z"/>
		</g>
	</g>
	<g>
		<g>
			<path fill="#FFFFFF" d="M230.114,228.308c7.781,0.959,15.562,1.917,23.343,2.876c3.599,0.443,8.29-1.004,11.871-1.438
				c3.957-0.479,7.914-0.958,11.871-1.438c6.318-0.766,6.393-10.774,0-10c-7.914,0.959-15.828,1.917-23.742,2.876
				c-3.54,0.429-8.151-1.004-11.671-1.438c-3.891-0.479-7.781-0.958-11.671-1.438C223.724,217.521,223.8,227.53,230.114,228.308
				L230.114,228.308z"/>
		</g>
	</g>
	<g>
		<g>
			<path fill="#FFFFFF" d="M228.465,124.66c0-11.012,0-22.023,0-33.035c0-6.449-10-6.449-10,0c0,11.012,0,22.023,0,33.035
				C218.465,131.108,228.465,131.108,228.465,124.66L228.465,124.66z"/>
		</g>
	</g>
	<g>
		<g>
			<path fill="#FFFFFF" d="M290.098,124.66c0-11.012,0-22.023,0-33.035c0-6.449-10-6.449-10,0c0,11.012,0,22.023,0,33.035
				C280.098,131.108,290.098,131.108,290.098,124.66L290.098,124.66z"/>
		</g>
	</g>
	<g>
		<g>
			<g>
				<path fill="#FFFFFF" d="M253.221,110.053c-22.377,0-44.753,0-67.13,0c0.833,0.833,1.667,1.667,2.5,2.5c0-0.815,0-1.63,0-2.445
					c-0.612,0.804-1.224,1.607-1.835,2.411c11.096-4.634,22.192-9.268,33.289-13.901c6.697-2.797,13.395-5.594,20.093-8.391
					c4.052-1.692,5.888-2.508,8.647-6.093c-0.72,0.413-1.439,0.826-2.159,1.238c2.234,0.001,4.468,0.003,6.703,0.004
					c3.225,0.002,3.225-4.998,0-5c-2.137-0.001-6.782-0.961-8.47,0.728c-0.327,0.327-0.686,0.889-0.967,1.253
					c-1.065,1.384-2.603,2.012-0.169,0.995c-0.384,0.161-0.768,0.321-1.151,0.481c-6.159,2.572-12.317,5.144-18.476,7.716
					c-12.89,5.383-25.779,10.765-38.668,16.148c-1.046,0.437-1.835,1.19-1.835,2.411c0,0.815,0,1.63,0,2.445
					c0,1.363,1.137,2.5,2.5,2.5c22.377,0,44.753,0,67.13,0C256.445,115.053,256.445,110.053,253.221,110.053L253.221,110.053z"/>
			</g>
		</g>
		<g>
			<g>
				<path fill="#FFFFFF" d="M255.723,82.238c0-1.62,0-3.24,0-4.859c0-1.7-1.39-2.422-2.573-3.349
					c-0.764-0.597-1.526-1.194-2.29-1.791c-1.658-1.297-0.033,2.258-0.033,0.292c0-1.871,0-3.742,0-5.613
					c-0.413,0.72-0.826,1.439-1.238,2.159c1.986-1.454,3.972-2.908,5.958-4.361c-0.841,0-1.683,0-2.523,0
					c2.021,1.383,4.044,2.766,6.065,4.149c-0.413-0.72-0.825-1.439-1.238-2.159c0.035,1.135,0.07,2.269,0.105,3.404
					c0.1,3.216,5.1,3.226,5,0c-0.067-2.165,0.351-4.403-1.639-5.764c-1.923-1.316-3.847-2.631-5.771-3.947
					c-0.668-0.457-1.858-0.486-2.523,0c-1.961,1.435-3.921,2.871-5.882,4.306c-2.076,1.52-1.314,4.981-1.314,7.239
					c0,3.056,1.477,3.815,3.786,5.623c0.493,0.386,0.986,0.771,1.479,1.157c0.614,0.48-0.369-2.596-0.369-0.404
					c0,1.306,0,2.613,0,3.919C250.723,85.462,255.723,85.462,255.723,82.238L255.723,82.238z"/>
			</g>
		</g>
		<g>
			<g>
				<path fill="#FFFFFF" d="M252.053,115.053c22.979,0,45.96,0,68.939,0c1.363,0,2.5-1.137,2.5-2.5c0-0.815,0-1.63,0-2.445
					c0-1.218-0.788-1.977-1.835-2.411c-12.52-5.187-25.039-10.374-37.558-15.561c-6.48-2.685-12.96-5.37-19.439-8.054
					c-0.537-0.223-1.075-0.445-1.612-0.668c1.571,0.651-0.338-1.067-1.138-2.097c-1.525-1.965-6.55-0.943-8.689-0.941
					c-3.224,0.002-3.225,5.002,0,5c1.575-0.001,3.15-0.002,4.726-0.003c0.624,0,1.249-0.001,1.873-0.001
					c-1.489-0.826-1.832-0.821-1.03,0.016c0.359,0.462,0.719,0.925,1.078,1.388c0.933,1.202,2.106,1.566,3.464,2.128
					c6.479,2.685,12.959,5.369,19.439,8.054c12.519,5.187,25.038,10.374,37.557,15.561c-0.611-0.804-1.224-1.607-1.835-2.411
					c0,0.815,0,1.63,0,2.445c0.833-0.833,1.667-1.667,2.5-2.5c-22.979,0-45.96,0-68.939,0
					C248.829,110.053,248.829,115.053,252.053,115.053L252.053,115.053z"/>
			</g>
		</g>
		<g>
			<g>
				<path fill="#FFFFFF" d="M244.604,88.243c5.78,0,11.561,0,17.341,0c3.225,0,3.225-5,0-5c-5.78,0-11.561,0-17.341,0
					C241.38,83.243,241.38,88.243,244.604,88.243L244.604,88.243z"/>
			</g>
		</g>
	</g>
</g>
</svg>
