<?xml version="1.0" encoding="utf-8"?>
<!-- Generator: Adobe Illustrator 16.0.0, SVG Export Plug-In . SVG Version: 6.00 Build 0)  -->
<!DOCTYPE svg PUBLIC "-//W3C//DTD SVG 1.1//EN" "http://www.w3.org/Graphics/SVG/1.1/DTD/svg11.dtd">
<svg version="1.1" id="Layer_1" xmlns="http://www.w3.org/2000/svg" xmlns:xlink="http://www.w3.org/1999/xlink" x="0px" y="0px"
	 width="500px" height="500px" viewBox="0 0 500 500" enable-background="new 0 0 500 500" xml:space="preserve">
<circle fill="#B70258" cx="251" cy="251" r="250"/>
<g>
	<g>
		<path fill="#FFFFFF" d="M275.342,131.582c46.966,5.839,93.931,11.679,140.896,17.518c0.834,0.104,1.668,0.208,2.502,0.311
			c-1.667-1.667-3.333-3.333-5-5c-5.521,44.41-11.043,88.821-16.564,133.231c-5.275,42.427-10.55,84.854-15.825,127.28
			c1.667-1.667,3.333-3.333,5-5c-49.296-6.129-98.593-12.259-147.889-18.388c-14.402-1.791-28.805-3.581-43.207-5.372
			c-6.389-0.794-6.312,9.215,0,10c49.296,6.129,98.593,12.259,147.889,18.388c14.402,1.791,28.805,3.581,43.207,5.372
			c2.94,0.365,4.698-2.572,5-5c5.521-44.41,11.043-88.82,16.564-133.231c5.275-42.426,10.55-84.854,15.825-127.28
			c0.365-2.94-2.572-4.698-5-5c-46.966-5.839-93.931-11.679-140.896-17.518c-0.834-0.104-1.668-0.208-2.502-0.311
			C268.953,120.788,269.029,130.797,275.342,131.582L275.342,131.582z"/>
	</g>
</g>
<g>
	<g>
		<path fill="#FFFFFF" d="M332.741,337.604c-47.931,13.052-95.86,26.104-143.791,39.156c-14.003,3.813-28.006,7.627-42.01,11.44
			c2.05,1.164,4.1,2.328,6.15,3.492c-11.759-43.18-23.518-86.359-35.277-129.538c-11.233-41.251-22.467-82.502-33.701-123.753
			c-1.164,2.05-2.328,4.1-3.492,6.15c47.931-13.052,95.861-26.105,143.792-39.158c14.003-3.813,28.007-7.627,42.01-11.44
			c-2.05-1.164-4.101-2.328-6.15-3.492c11.759,43.18,23.518,86.359,35.276,129.539c11.233,41.252,22.467,82.503,33.7,123.754
			c1.692,6.215,11.34,3.573,9.643-2.658c-11.759-43.18-23.518-86.359-35.276-129.539c-11.233-41.251-22.467-82.503-33.7-123.754
			c-0.717-2.633-3.527-4.207-6.15-3.492c-47.931,13.052-95.861,26.105-143.792,39.158c-14.003,3.813-28.007,7.627-42.01,11.44
			c-2.633,0.717-4.207,3.527-3.492,6.15c11.759,43.18,23.518,86.359,35.277,129.539c11.233,41.251,22.467,82.502,33.701,123.753
			c0.717,2.634,3.527,4.207,6.15,3.492c47.93-13.052,95.86-26.104,143.791-39.156c14.003-3.813,28.007-7.627,42.01-11.44
			C341.614,345.555,338.973,335.907,332.741,337.604z"/>
	</g>
</g>
<g>
	<g>
		<g>
			<path fill="#FFFFFF" d="M266.797,224.529c6.569,23.072-0.97,47.378-19.304,62.81c-18.616,15.669-45.802,17.193-66.747,5.55
				c-21.198-11.784-32.741-36.46-29.285-60.279c3.439-23.699,21.484-42.699,44.409-48.672
				C226.298,176.01,257.668,195.005,266.797,224.529c0.95,3.07,5.777,1.76,4.822-1.329c-6.483-20.967-22.659-37.065-43.661-43.443
				c-21.177-6.431-44.479-0.484-60.916,13.972c-16.286,14.324-23.455,36.547-20.411,57.746c3.143,21.89,18.527,40.643,38.685,49.196
				c22.795,9.673,49.293,4.683,67.735-11.536c18.474-16.248,25.224-42.557,18.568-65.935
				C270.737,220.104,265.912,221.422,266.797,224.529z"/>
		</g>
	</g>
	<g>
		<g>
			<path fill="#FFFFFF" d="M192.729,184.838c9.321-2.504,17.921,3.492,24.257,9.726c9.712,9.556,16.028,22.496,20.323,35.253
				c4.671,13.878,6.891,29.124,4.78,43.694c-1.391,9.604-5.488,21.333-15.625,24.644c-3.051,0.997-1.745,5.826,1.329,4.822
				c10.679-3.489,15.918-13.854,18.361-24.144c3.784-15.937,1.205-33.275-3.5-48.709c-4.485-14.715-12-29.125-23.036-39.984
				c-7.361-7.242-17.678-12.956-28.219-10.124C188.29,180.853,189.611,185.676,192.729,184.838L192.729,184.838z"/>
		</g>
	</g>
	<g>
		<g>
			<path fill="#FFFFFF" d="M191.738,179.952c-10.453,3.461-14.667,14.53-16.424,24.504c-2.8,15.896-0.023,32.739,4.621,48.004
				c4.375,14.38,11.398,28.466,21.677,39.542c6.701,7.221,16.522,13.729,26.765,11.009c3.114-0.827,1.791-5.65-1.329-4.822
				c-8.961,2.38-17.105-4.555-22.762-10.65c-8.997-9.695-14.856-22.342-19.001-34.752c-4.506-13.493-6.764-27.926-5.733-42.143
				c0.666-9.173,3.5-22.554,13.516-25.871C196.113,183.765,194.808,178.936,191.738,179.952L191.738,179.952z"/>
		</g>
	</g>
	<g>
		<g>
			<path fill="#FFFFFF" d="M152.021,260.751c39.139-11.622,78.278-23.244,117.417-34.866c3.083-0.916,1.769-5.741-1.33-4.821
				c-39.139,11.622-78.277,23.244-117.417,34.865C147.608,256.845,148.922,261.671,152.021,260.751L152.021,260.751z"/>
		</g>
	</g>
	<g>
		<g>
			<path fill="#FFFFFF" d="M150.277,231.697c34.581-10.268,69.162-20.536,103.743-30.804c3.083-0.916,1.769-5.741-1.33-4.821
				c-34.58,10.268-69.161,20.536-103.742,30.804C145.864,227.792,147.178,232.617,150.277,231.697L150.277,231.697z"/>
		</g>
	</g>
	<g>
		<g>
			<path fill="#FFFFFF" d="M167.06,286.974c34.582-10.269,69.163-20.537,103.745-30.805c3.083-0.916,1.769-5.742-1.33-4.822
				c-34.581,10.269-69.163,20.537-103.744,30.805C162.647,283.067,163.961,287.894,167.06,286.974L167.06,286.974z"/>
		</g>
	</g>
	<g>
		<g>
			<path fill="#FFFFFF" d="M190.263,183.941c11.548,38.89,23.095,77.78,34.643,116.671c0.916,3.083,5.741,1.769,4.821-1.33
				c-11.548-38.89-23.095-77.78-34.643-116.67C194.168,179.529,189.343,180.843,190.263,183.941L190.263,183.941z"/>
		</g>
	</g>
</g>
<g>
	<g>
		<path fill="#FFFFFF" d="M295.704,201.225c31.817-8.078,64.103,10.745,72.69,42.365c8.432,31.045-11.2,63.144-41.55,71.926
			c-3.091,0.895-1.774,5.72,1.33,4.822c33.031-9.56,52.923-43.225,45.363-76.779c-7.919-35.153-44.876-55.859-79.164-47.155
			C291.251,197.197,292.577,202.019,295.704,201.225L295.704,201.225z"/>
	</g>
</g>
<g>
	<g>
		<path fill="#FFFFFF" d="M318.914,199.75c17.461,3.042,21.576,27.31,22.391,41.642c1.256,22.099-4.212,47.586-18.647,64.918
			c-2.048,2.458,1.47,6.016,3.535,3.535c15.786-18.952,21.395-45.882,20.022-70.033c-0.919-16.173-6.771-41.539-25.971-44.883
			C317.091,194.38,315.742,199.198,318.914,199.75L318.914,199.75z"/>
	</g>
</g>
<g>
	<g>
		<path fill="#FFFFFF" d="M319.912,194.923c-10.462-1.127-18.546,6.809-24.27,14.581c-1.916,2.6,2.427,5.09,4.316,2.523
			c4.745-6.441,11.308-13.036,19.953-12.104C323.116,200.269,323.083,195.265,319.912,194.923L319.912,194.923z"/>
	</g>
</g>
<g>
	<g>
		<path fill="#FFFFFF" d="M308.628,260.081c20.863,3.063,41.727,6.127,62.589,9.191c3.153,0.463,4.51-4.354,1.33-4.822
			c-20.863-3.063-41.727-6.127-62.589-9.191C306.805,254.796,305.448,259.613,308.628,260.081L308.628,260.081z"/>
	</g>
</g>
<g>
	<g>
		<path fill="#FFFFFF" d="M301.63,230.401c22.041,3.237,44.082,6.474,66.122,9.711c3.153,0.463,4.51-4.354,1.33-4.821
			c-22.041-3.237-44.082-6.474-66.122-9.711C299.807,225.117,298.45,229.934,301.63,230.401L301.63,230.401z"/>
	</g>
</g>
<g>
	<g>
		<path fill="#FFFFFF" d="M317.055,291.052c14.22,2.088,28.438,4.176,42.657,6.265c3.153,0.463,4.51-4.354,1.33-4.822
			c-14.22-2.088-28.438-4.176-42.657-6.265C315.231,285.767,313.875,290.584,317.055,291.052L317.055,291.052z"/>
	</g>
</g>
<g>
	<g>
		<path fill="#FFFFFF" d="M317.362,197.702c-3.01,20.495-6.02,40.989-9.029,61.483c-0.463,3.153,4.354,4.51,4.822,1.33
			c3.01-20.495,6.02-40.989,9.029-61.484C322.647,195.878,317.83,194.521,317.362,197.702L317.362,197.702z"/>
	</g>
</g>
</svg>
