<?xml version="1.0" encoding="utf-8"?>
<!-- Generator: Adobe Illustrator 16.0.0, SVG Export Plug-In . SVG Version: 6.00 Build 0)  -->
<!DOCTYPE svg PUBLIC "-//W3C//DTD SVG 1.1//EN" "http://www.w3.org/Graphics/SVG/1.1/DTD/svg11.dtd">
<svg version="1.1" id="Layer_1" xmlns="http://www.w3.org/2000/svg" xmlns:xlink="http://www.w3.org/1999/xlink" x="0px" y="0px"
	 width="312.25px" height="312.5px" viewBox="0 1.25 312.25 312.5" enable-background="new 0 1.25 312.25 312.5"
	 xml:space="preserve">
<g>
	<circle fill="#F2D0EE" cx="156.5" cy="158.25" r="155.5"/>
	<g>
		<g>
			<g>
				<path fill="#1A171B" d="M35.333,92.711c65.635,0,131.271,0,196.906,0c3.225,0,3.225-5,0-5c-65.636,0-131.271,0-196.906,0
					C32.109,87.711,32.109,92.711,35.333,92.711L35.333,92.711z"/>
			</g>
		</g>
		<g>
			<g>
				<path fill="#1A171B" d="M229.741,90.211c0,40.846,0,81.693,0,122.539c0,3.225,5,3.225,5,0c0-40.846,0-81.692,0-122.539
					C234.741,86.987,229.741,86.987,229.741,90.211L229.741,90.211z"/>
			</g>
		</g>
		<g>
			<g>
				<path fill="#1A171B" d="M32.663,90.572c0,40.837,0,81.674,0,122.511c0,3.226,5,3.226,5,0c0-40.837,0-81.674,0-122.511
					C37.663,87.348,32.663,87.348,32.663,90.572L32.663,90.572z"/>
			</g>
		</g>
		<g>
			<g>
				<path fill="#1A171B" d="M15.602,216.628c78.479,0,156.957,0,235.436,0c3.225,0,3.225-5,0-5c-78.479,0-156.957,0-235.436,0
					C12.377,211.628,12.377,216.628,15.602,216.628L15.602,216.628z"/>
			</g>
		</g>
		<g>
			<g>
				<path fill="#1A171B" d="M14.95,234.699c78.609,0,157.219,0,235.828,0c3.225,0,3.225-5,0-5c-78.609,0-157.219,0-235.828,0
					C11.726,229.699,11.726,234.699,14.95,234.699L14.95,234.699z"/>
			</g>
		</g>
		<g>
			<g>
				<path fill="#1A171B" d="M248.797,214.75c0,5.833,0,11.667,0,17.5c0,3.225,5,3.225,5,0c0-5.833,0-11.667,0-17.5
					C253.797,211.525,248.797,211.525,248.797,214.75L248.797,214.75z"/>
			</g>
		</g>
		<g>
			<g>
				<path fill="#1A171B" d="M12.256,214.102c0,6.049,0,12.1,0,18.148c0,3.225,5,3.225,5,0c0-6.05,0-12.1,0-18.148
					C17.256,210.876,12.256,210.876,12.256,214.102L12.256,214.102z"/>
			</g>
		</g>
		<g>
			<g>
				<path fill="#1A171B" d="M48.444,104.942c56.581,0,113.162,0,169.741,0c1.936,0,1.936-3,0-3c-56.579,0-113.161,0-169.741,0
					C46.51,101.942,46.51,104.942,48.444,104.942L48.444,104.942z"/>
			</g>
		</g>
		<g>
			<g>
				<path fill="#1A171B" d="M217.51,103.492c0,32.593,0,65.186,0,97.777c0,1.936,3,1.936,3,0c0-32.593,0-65.186,0-97.777
					C220.51,101.558,217.51,101.558,217.51,103.492L217.51,103.492z"/>
			</g>
		</g>
		<g>
			<g>
				<path fill="#1A171B" d="M46.478,103.492c0,32.472,0,64.943,0,97.415c0,1.935,3,1.935,3,0c0-32.472,0-64.943,0-97.415
					C49.478,101.558,46.478,101.558,46.478,103.492L46.478,103.492z"/>
			</g>
		</g>
		<g>
			<g>
				<path fill="#1A171B" d="M48.122,202.721c56.581,0,113.162,0,169.742,0c1.935,0,1.935-3,0-3c-56.58,0-113.161,0-169.742,0
					C46.187,199.721,46.187,202.721,48.122,202.721L48.122,202.721z"/>
			</g>
		</g>
		<g>
			<g>
				<path fill="#1A171B" d="M203.075,71.75c0,6.111,0,12.222,0,18.333c0,3.224,5,3.224,5,0c0-6.111,0-12.222,0-18.333
					C208.075,68.526,203.075,68.526,203.075,71.75L203.075,71.75z"/>
			</g>
		</g>
		<g>
			<g>
				<path fill="#1A171B" d="M288.408,71.211c0,40.018,0,80.037,0,120.055c0,3.226,5,3.226,5,0c0-40.018,0-80.037,0-120.055
					C293.408,67.987,288.408,67.987,288.408,71.211L288.408,71.211z"/>
			</g>
		</g>
		<g>
			<g>
				<path fill="#1A171B" d="M205.695,73.711c28.323,0,56.646,0,84.972,0c3.225,0,3.225-5,0-5c-28.324,0-56.647,0-84.972,0
					C202.471,68.711,202.471,73.711,205.695,73.711L205.695,73.711z"/>
			</g>
		</g>
		<g>
			<g>
				<path fill="#1A171B" d="M232.334,193.712c19.444,0,38.89,0,58.334,0c3.225,0,3.225-5,0-5c-19.444,0-38.89,0-58.334,0
					C229.109,188.712,229.109,193.712,232.334,193.712L232.334,193.712z"/>
			</g>
		</g>
		<g>
			<g>
				<path fill="#1A171B" d="M213.667,82.276c22.944,0,45.889,0,68.833,0c1.935,0,1.935-3,0-3c-22.944,0-45.889,0-68.833,0
					C211.732,79.276,211.732,82.276,213.667,82.276L213.667,82.276z"/>
			</g>
		</g>
		<g>
			<g>
				<path fill="#1A171B" d="M281.51,81.159c0,31.947,0,63.894,0,95.841c0,1.936,3,1.936,3,0c0-31.947,0-63.894,0-95.841
					C284.51,79.225,281.51,79.225,281.51,81.159L281.51,81.159z"/>
			</g>
		</g>
		<g>
			<g>
				<path fill="#1A171B" d="M211.844,81.25c0,3.056,0,6.111,0,9.167c0,1.935,3,1.935,3,0c0-3.056,0-6.111,0-9.167
					C214.844,79.315,211.844,79.315,211.844,81.25L211.844,81.25z"/>
			</g>
		</g>
		<g>
			<g>
				<path fill="#1A171B" d="M231.667,178.609c17.027,0,34.056,0,51.083,0c1.935,0,1.935-3,0-3c-17.027,0-34.056,0-51.083,0
					C229.732,175.609,229.732,178.609,231.667,178.609L231.667,178.609z"/>
			</g>
		</g>
		<circle fill="#1A171B" stroke="#1A171B" stroke-miterlimit="10" cx="248.25" cy="183.5" r="2.5"/>
	</g>
</g>
</svg>
