<?xml version="1.0" encoding="utf-8"?>
<!-- Generator: Adobe Illustrator 16.0.0, SVG Export Plug-In . SVG Version: 6.00 Build 0)  -->
<!DOCTYPE svg PUBLIC "-//W3C//DTD SVG 1.1//EN" "http://www.w3.org/Graphics/SVG/1.1/DTD/svg11.dtd">
<svg version="1.1" id="Layer_1" xmlns="http://www.w3.org/2000/svg" xmlns:xlink="http://www.w3.org/1999/xlink" x="0px" y="0px"
	 width="500px" height="500px" viewBox="0 0 500 500" enable-background="new 0 0 500 500" xml:space="preserve">
<g>
	<g>
		<path fill="#1A171B" d="M144.333,176.961c65.635,0,131.27,0,196.906,0c3.225,0,3.225-5,0-5c-65.636,0-131.271,0-196.906,0
			C141.109,171.961,141.109,176.961,144.333,176.961L144.333,176.961z"/>
	</g>
</g>
<g>
	<g>
		<path fill="#1A171B" d="M338.741,174.461c0,40.846,0,81.693,0,122.539c0,3.225,5,3.225,5,0c0-40.846,0-81.692,0-122.539
			C343.741,171.237,338.741,171.237,338.741,174.461L338.741,174.461z"/>
	</g>
</g>
<g>
	<g>
		<path fill="#1A171B" d="M141.663,174.822c0,40.837,0,81.674,0,122.511c0,3.225,5,3.225,5,0c0-40.837,0-81.674,0-122.511
			C146.663,171.598,141.663,171.598,141.663,174.822L141.663,174.822z"/>
	</g>
</g>
<g>
	<g>
		<path fill="#1A171B" d="M124.602,300.878c78.479,0,156.957,0,235.436,0c3.225,0,3.225-5,0-5c-78.479,0-156.957,0-235.436,0
			C121.377,295.878,121.377,300.878,124.602,300.878L124.602,300.878z"/>
	</g>
</g>
<g>
	<g>
		<path fill="#1A171B" d="M123.95,318.949c78.609,0,157.219,0,235.828,0c3.225,0,3.225-5,0-5c-78.609,0-157.219,0-235.828,0
			C120.726,313.949,120.726,318.949,123.95,318.949L123.95,318.949z"/>
	</g>
</g>
<g>
	<g>
		<path fill="#1A171B" d="M357.797,299c0,5.833,0,11.667,0,17.5c0,3.225,5,3.225,5,0c0-5.833,0-11.667,0-17.5
			C362.797,295.775,357.797,295.775,357.797,299L357.797,299z"/>
	</g>
</g>
<g>
	<g>
		<path fill="#1A171B" d="M121.256,298.351c0,6.05,0,12.1,0,18.149c0,3.225,5,3.225,5,0c0-6.05,0-12.1,0-18.149
			C126.256,295.126,121.256,295.126,121.256,298.351L121.256,298.351z"/>
	</g>
</g>
<g>
	<g>
		<path fill="#1A171B" d="M157.444,189.192c56.581,0,113.161,0,169.741,0c1.935,0,1.935-3,0-3c-56.58,0-113.161,0-169.741,0
			C155.51,186.192,155.51,189.192,157.444,189.192L157.444,189.192z"/>
	</g>
</g>
<g>
	<g>
		<path fill="#1A171B" d="M326.51,187.742c0,32.593,0,65.186,0,97.778c0,1.935,3,1.935,3,0c0-32.593,0-65.186,0-97.778
			C329.51,185.808,326.51,185.808,326.51,187.742L326.51,187.742z"/>
	</g>
</g>
<g>
	<g>
		<path fill="#1A171B" d="M155.478,187.742c0,32.472,0,64.943,0,97.415c0,1.935,3,1.935,3,0c0-32.472,0-64.943,0-97.415
			C158.478,185.808,155.478,185.808,155.478,187.742L155.478,187.742z"/>
	</g>
</g>
<g>
	<g>
		<path fill="#1A171B" d="M157.122,286.97c56.581,0,113.162,0,169.742,0c1.935,0,1.935-3,0-3c-56.58,0-113.161,0-169.742,0
			C155.187,283.97,155.187,286.97,157.122,286.97L157.122,286.97z"/>
	</g>
</g>
<g>
	<g>
		<path fill="#1A171B" d="M312.075,156c0,6.111,0,12.222,0,18.333c0,3.224,5,3.224,5,0c0-6.111,0-12.222,0-18.333
			C317.075,152.776,312.075,152.776,312.075,156L312.075,156z"/>
	</g>
</g>
<g>
	<g>
		<path fill="#1A171B" d="M397.408,155.461c0,40.018,0,80.037,0,120.055c0,3.225,5,3.225,5,0c0-40.018,0-80.037,0-120.055
			C402.408,152.237,397.408,152.237,397.408,155.461L397.408,155.461z"/>
	</g>
</g>
<g>
	<g>
		<path fill="#1A171B" d="M314.695,157.961c28.324,0,56.647,0,84.972,0c3.225,0,3.225-5,0-5c-28.324,0-56.647,0-84.972,0
			C311.471,152.961,311.471,157.961,314.695,157.961L314.695,157.961z"/>
	</g>
</g>
<g>
	<g>
		<path fill="#1A171B" d="M341.334,277.962c19.444,0,38.89,0,58.334,0c3.225,0,3.225-5,0-5c-19.444,0-38.89,0-58.334,0
			C338.109,272.962,338.109,277.962,341.334,277.962L341.334,277.962z"/>
	</g>
</g>
<g>
	<g>
		<path fill="#1A171B" d="M322.667,166.526c22.944,0,45.889,0,68.833,0c1.935,0,1.935-3,0-3c-22.944,0-45.889,0-68.833,0
			C320.732,163.526,320.732,166.526,322.667,166.526L322.667,166.526z"/>
	</g>
</g>
<g>
	<g>
		<path fill="#1A171B" d="M390.51,165.409c0,31.947,0,63.894,0,95.841c0,1.935,3,1.935,3,0c0-31.947,0-63.894,0-95.841
			C393.51,163.475,390.51,163.475,390.51,165.409L390.51,165.409z"/>
	</g>
</g>
<g>
	<g>
		<path fill="#1A171B" d="M320.844,165.5c0,3.056,0,6.111,0,9.167c0,1.935,3,1.935,3,0c0-3.056,0-6.111,0-9.167
			C323.844,163.565,320.844,163.565,320.844,165.5L320.844,165.5z"/>
	</g>
</g>
<g>
	<g>
		<path fill="#1A171B" d="M340.667,262.859c17.027,0,34.056,0,51.083,0c1.935,0,1.935-3,0-3c-17.027,0-34.056,0-51.083,0
			C338.732,259.859,338.732,262.859,340.667,262.859L340.667,262.859z"/>
	</g>
</g>
<circle fill="#1A171B" stroke="#1A171B" stroke-miterlimit="10" cx="357.25" cy="267.75" r="2.5"/>
</svg>
