<?xml version="1.0" encoding="utf-8"?>
<!-- Generator: Adobe Illustrator 18.1.1, SVG Export Plug-In . SVG Version: 6.00 Build 0)  -->
<svg version="1.1" id="Capa_1" xmlns="http://www.w3.org/2000/svg" xmlns:xlink="http://www.w3.org/1999/xlink" x="0px" y="0px"
	 viewBox="5 -5.1 510.1 510.1" enable-background="new 5 -5.1 510.1 510.1" xml:space="preserve">
<g>
	<g>
		<path fill="#000000" d="M39.8,423.8h81.2v69.6c0,3.4,1.1,6.2,3.3,8.3c2.2,2.2,5,3.3,8.3,3.3H193c3.1,0,5.9-1.1,8.2-3.3
			c2.3-2.2,3.4-4.9,3.4-8.3v-69.6h183c3.4,0,6.2-1.1,8.3-3.3c2.2-2.2,3.3-5,3.3-8.3v-46.4c0-3.4-1.1-6.2-3.3-8.3
			c-2.2-2.2-5-3.3-8.3-3.3h-183v-42.8h123.2c48.3,0,87.7-14.7,118.3-44.2c30.6-29.4,45.8-67.5,45.8-114.1
			c0-46.6-15.3-84.6-45.8-114.1c-30.6-29.5-70-44.2-118.3-44.2H132.5c-3.4,0-6.2,1.1-8.3,3.3c-2.2,2.2-3.3,5-3.3,8.3v227.9H39.8
			c-3.4,0-6.2,1.1-8.3,3.4c-2.2,2.3-3.3,5-3.3,8.2v54c0,3.4,1.1,6.2,3.3,8.3c2.2,2.2,4.9,3.3,8.3,3.3h81.2v42.8H39.8
			c-3.4,0-6.2,1.1-8.3,3.3c-2.2,2.2-3.3,5-3.3,8.3v46.4c0,3.4,1.1,6.2,3.3,8.3C33.6,422.8,36.4,423.8,39.8,423.8z M204.6,72.1h115.9
			c25.6,0,46.2,7.5,62,22.5c15.7,15,23.5,34.5,23.5,58.7c0,24.2-7.9,43.7-23.5,58.7c-15.7,15-36.4,22.5-62,22.5H204.6V72.1z"/>
	</g>
</g>
</svg>