<?xml version="1.0" encoding="utf-8"?>
<!-- Generator: Adobe Illustrator 16.0.0, SVG Export Plug-In . SVG Version: 6.00 Build 0)  -->
<!DOCTYPE svg PUBLIC "-//W3C//DTD SVG 1.1//EN" "http://www.w3.org/Graphics/SVG/1.1/DTD/svg11.dtd">
<svg version="1.1" id="Layer_1" xmlns="http://www.w3.org/2000/svg" xmlns:xlink="http://www.w3.org/1999/xlink" x="0px" y="0px"
	 width="315px" height="317px" viewBox="0 0 315 317" enable-background="new 0 0 315 317" xml:space="preserve">
<circle fill="#F2D0EE" cx="156.916" cy="159.166" r="155.671"/>
<g>
	<g>
		<path fill="#1A171B" d="M251.797,217c0,5.833,0,11.667,0,17.5c0,3.225,5,3.225,5,0c0-5.833,0-11.667,0-17.5
			C256.797,213.775,251.797,213.775,251.797,217L251.797,217z"/>
	</g>
</g>
<g>
	<g>
		<path fill="#1A171B" d="M206.075,74c0,6.111,0,12.222,0,18.333c0,3.224,5,3.224,5,0c0-6.111,0-12.222,0-18.333
			C211.075,70.776,206.075,70.776,206.075,74L206.075,74z"/>
	</g>
</g>
<g>
	<g>
		<path fill="#1A171B" d="M291.408,73.461c0,40.018,0,80.037,0,120.055c0,3.225,5,3.225,5,0c0-40.018,0-80.037,0-120.055
			C296.408,70.237,291.408,70.237,291.408,73.461L291.408,73.461z"/>
	</g>
</g>
<g>
	<g>
		<path fill="#1A171B" d="M208.695,75.961c28.324,0,56.647,0,84.972,0c3.225,0,3.225-5,0-5c-28.324,0-56.647,0-84.972,0
			C205.471,70.961,205.471,75.961,208.695,75.961L208.695,75.961z"/>
	</g>
</g>
<g>
	<g>
		<path fill="#1A171B" d="M235.334,195.962c19.444,0,38.89,0,58.334,0c3.225,0,3.225-5,0-5c-19.444,0-38.89,0-58.334,0
			C232.109,190.962,232.109,195.962,235.334,195.962L235.334,195.962z"/>
	</g>
</g>
<g>
	<path fill="#FFFFFF" d="M234.667,179.359c17.092,0,51.343-0.109,51.343-0.109c0-32.428-0.01-95.875-0.01-95.875
		c-22.772,0-69.583-0.292-69.583-0.292c0,3.056,0.083,5.61,0.083,8.667L235.125,92"/>
	<g>
		<path fill="#1A171B" d="M234.667,180.859c17.114-0.002,34.229-0.055,51.343-0.109c0.817-0.003,1.5-0.681,1.5-1.5
			c0-31.958-0.005-63.917-0.01-95.875c0-0.818-0.683-1.5-1.5-1.5c-23.194-0.004-46.389-0.147-69.583-0.292
			c-0.814-0.005-1.504,0.686-1.5,1.5c0.014,2.889,0.069,5.777,0.083,8.667c0.004,0.826,0.68,1.489,1.5,1.5
			c6.208,0.083,12.417,0.167,18.625,0.25c1.936,0.026,1.933-2.974,0-3c-6.208-0.083-12.417-0.167-18.625-0.25c0.5,0.5,1,1,1.5,1.5
			c-0.014-2.889-0.069-5.777-0.083-8.667c-0.5,0.5-1,1-1.5,1.5c23.194,0.144,46.389,0.288,69.583,0.292c-0.5-0.5-1-1-1.5-1.5
			c0.005,31.958,0.01,63.917,0.01,95.875c0.5-0.5,1-1,1.5-1.5c-17.114,0.055-34.229,0.107-51.343,0.109
			C232.732,177.859,232.732,180.859,234.667,180.859L234.667,180.859z"/>
	</g>
</g>
<circle fill="#1A171B" stroke="#1A171B" stroke-miterlimit="10" cx="251.25" cy="185.75" r="2.5"/>
<g>
	<g>
		<path fill="#1A171B" d="M38.333,94.961c65.635,0,131.27,0,196.906,0c3.225,0,3.225-5,0-5c-65.636,0-131.271,0-196.906,0
			C35.109,89.961,35.109,94.961,38.333,94.961L38.333,94.961z"/>
	</g>
</g>
<g>
	<g>
		<path fill="#1A171B" d="M232.741,92.461c0,40.846,0,81.693,0,122.539c0,3.225,5,3.225,5,0c0-40.846,0-81.692,0-122.539
			C237.741,89.237,232.741,89.237,232.741,92.461L232.741,92.461z"/>
	</g>
</g>
<g>
	<g>
		<path fill="#1A171B" d="M35.663,92.822c0,40.837,0,81.674,0,122.511c0,3.225,5,3.225,5,0c0-40.837,0-81.674,0-122.511
			C40.663,89.598,35.663,89.598,35.663,92.822L35.663,92.822z"/>
	</g>
</g>
<g>
	<g>
		<path fill="#1A171B" d="M18.602,218.878c78.479,0,156.957,0,235.436,0c3.225,0,3.225-5,0-5c-78.479,0-156.957,0-235.436,0
			C15.377,213.878,15.377,218.878,18.602,218.878L18.602,218.878z"/>
	</g>
</g>
<g>
	<g>
		<path fill="#1A171B" d="M17.95,236.949c78.609,0,157.219,0,235.828,0c3.225,0,3.225-5,0-5c-78.609,0-157.219,0-235.828,0
			C14.726,231.949,14.726,236.949,17.95,236.949L17.95,236.949z"/>
	</g>
</g>
<g>
	<g>
		<path fill="#1A171B" d="M15.256,216.351c0,6.05,0,12.1,0,18.149c0,3.225,5,3.225,5,0c0-6.05,0-12.1,0-18.149
			C20.256,213.126,15.256,213.126,15.256,216.351L15.256,216.351z"/>
	</g>
</g>
<g>
	<g>
		<path fill="#1A171B" d="M51.444,107.192c56.581,0,113.161,0,169.741,0c1.935,0,1.935-3,0-3c-56.58,0-113.161,0-169.741,0
			C49.51,104.192,49.51,107.192,51.444,107.192L51.444,107.192z"/>
	</g>
</g>
<g>
	<g>
		<path fill="#1A171B" d="M220.51,105.742c0,32.593,0,65.186,0,97.778c0,1.935,3,1.935,3,0c0-32.593,0-65.186,0-97.778
			C223.51,103.808,220.51,103.808,220.51,105.742L220.51,105.742z"/>
	</g>
</g>
<g>
	<g>
		<path fill="#1A171B" d="M49.478,105.742c0,32.472,0,64.943,0,97.415c0,1.935,3,1.935,3,0c0-32.472,0-64.943,0-97.415
			C52.478,103.808,49.478,103.808,49.478,105.742L49.478,105.742z"/>
	</g>
</g>
<g>
	<g>
		<path fill="#1A171B" d="M51.122,204.97c56.581,0,113.162,0,169.742,0c1.935,0,1.935-3,0-3c-56.58,0-113.161,0-169.742,0
			C49.187,201.97,49.187,204.97,51.122,204.97L51.122,204.97z"/>
	</g>
</g>
<g>
	<g>
		<path fill="#FFFFFF" d="M209.978,202.334c0-30.201,0-59.73,0-89.258c0,0-52.48,0.061-78.46,0.061l-67.809-0.052
			c0,0-0.208,58.55-0.208,88.75"/>
		<g>
			<path fill="#1A171B" d="M211.478,202.334c0-29.753,0-59.505,0-89.258c0-0.817-0.683-1.501-1.5-1.5
				c-48.757,0.056-97.513,0.046-146.269,0.008c-0.82,0-1.497,0.683-1.5,1.5c-0.105,29.583-0.206,59.167-0.208,88.75
				c0,1.935,3,1.935,3,0c0.002-29.583,0.104-59.167,0.208-88.75c-0.5,0.5-1,1-1.5,1.5c48.756,0.038,97.512,0.048,146.269-0.008
				c-0.5-0.5-1-1-1.5-1.5c0,29.753,0,59.505,0,89.258C208.478,204.269,211.478,204.269,211.478,202.334L211.478,202.334z"/>
		</g>
	</g>
	<g>
		<g>
			<path fill="#1A171B" d="M72.428,148.469c17.889,0,35.778,0,53.667,0c1.935,0,1.935-3,0-3c-17.889,0-35.778,0-53.667,0
				C70.493,145.469,70.493,148.469,72.428,148.469L72.428,148.469z"/>
		</g>
	</g>
	<g>
		<g>
			<path fill="#1A171B" d="M72.428,157.08c17.889,0,35.778,0,53.667,0c1.935,0,1.935-3,0-3c-17.889,0-35.778,0-53.667,0
				C70.493,154.08,70.493,157.08,72.428,157.08L72.428,157.08z"/>
		</g>
	</g>
	<g>
		<g>
			<path fill="#1A171B" d="M72.428,165.691c17.889,0,35.778,0,53.667,0c1.935,0,1.935-3,0-3c-17.889,0-35.778,0-53.667,0
				C70.493,162.691,70.493,165.691,72.428,165.691L72.428,165.691z"/>
		</g>
	</g>
	<g>
		<g>
			<path fill="#1A171B" d="M72.428,174.303c17.889,0,35.778,0,53.667,0c1.935,0,1.935-3,0-3c-17.889,0-35.778,0-53.667,0
				C70.494,171.303,70.494,174.303,72.428,174.303L72.428,174.303z"/>
		</g>
	</g>
	<g>
		<g>
			<path fill="#1A171B" d="M72.428,182.914c17.889,0,35.778,0,53.667,0c1.935,0,1.935-3,0-3c-17.889,0-35.778,0-53.667,0
				C70.493,179.914,70.493,182.914,72.428,182.914L72.428,182.914z"/>
		</g>
	</g>
	<g>
		<g>
			<path fill="#1A171B" d="M72.428,191.524c17.889,0,35.778,0,53.667,0c1.935,0,1.935-3,0-3c-17.889,0-35.778,0-53.667,0
				C70.494,188.524,70.494,191.524,72.428,191.524L72.428,191.524z"/>
		</g>
	</g>
	<g>
		<g>
			<path fill="#1A171B" d="M72.428,200.136c17.889,0,35.778,0,53.667,0c1.935,0,1.935-3,0-3c-17.889,0-35.778,0-53.667,0
				C70.493,197.136,70.493,200.136,72.428,200.136L72.428,200.136z"/>
		</g>
	</g>
	<g>
		<g>
			<path fill="#1A171B" d="M146.094,148.803c17.89,0,35.778,0,53.668,0c1.935,0,1.935-3,0-3c-17.89,0-35.778,0-53.668,0
				C144.159,145.803,144.159,148.803,146.094,148.803L146.094,148.803z"/>
		</g>
	</g>
	<g>
		<g>
			<path fill="#1A171B" d="M146.094,157.414c17.89,0,35.778,0,53.668,0c1.935,0,1.935-3,0-3c-17.89,0-35.778,0-53.668,0
				C144.159,154.414,144.159,157.414,146.094,157.414L146.094,157.414z"/>
		</g>
	</g>
	<g>
		<g>
			<path fill="#1A171B" d="M146.094,166.025c17.89,0,35.778,0,53.668,0c1.935,0,1.935-3,0-3c-17.89,0-35.778,0-53.668,0
				C144.159,163.025,144.159,166.025,146.094,166.025L146.094,166.025z"/>
		</g>
	</g>
	<g>
		<g>
			<path fill="#1A171B" d="M146.094,174.637c17.89,0,35.778,0,53.668,0c1.935,0,1.935-3,0-3c-17.89,0-35.778,0-53.668,0
				C144.159,171.637,144.159,174.637,146.094,174.637L146.094,174.637z"/>
		</g>
	</g>
	<g>
		<g>
			<path fill="#1A171B" d="M146.094,183.248c17.89,0,35.778,0,53.668,0c1.935,0,1.935-3,0-3c-17.89,0-35.778,0-53.668,0
				C144.159,180.248,144.159,183.248,146.094,183.248L146.094,183.248z"/>
		</g>
	</g>
	<g>
		<g>
			<path fill="#1A171B" d="M146.094,191.857c17.89,0,35.778,0,53.668,0c1.935,0,1.935-3,0-3c-17.89,0-35.778,0-53.668,0
				C144.159,188.857,144.159,191.857,146.094,191.857L146.094,191.857z"/>
		</g>
	</g>
	<g>
		<g>
			<path fill="#1A171B" d="M146.094,200.469c17.89,0,35.778,0,53.668,0c1.935,0,1.935-3,0-3c-17.89,0-35.778,0-53.668,0
				C144.159,197.469,144.159,200.469,146.094,200.469L146.094,200.469z"/>
		</g>
	</g>
	<g>
		<g>
			<path fill="#1A171B" d="M72.428,126.469c42.334,0,84.668,0,127.002,0c3.225,0,3.225-5,0-5c-42.334,0-84.668,0-127.002,0
				C69.204,121.469,69.204,126.469,72.428,126.469L72.428,126.469z"/>
		</g>
	</g>
	<g>
		<g>
			<path fill="#1A171B" d="M72.428,135.08c42.334,0,84.668,0,127.002,0c3.225,0,3.225-5,0-5c-42.334,0-84.668,0-127.002,0
				C69.204,130.08,69.204,135.08,72.428,135.08L72.428,135.08z"/>
		</g>
	</g>
</g>
<g>
	<g>
		<path fill="#1A171B" d="M234.667,115.803c14.031,0,28.063,0,42.095,0c1.935,0,1.935-3,0-3c-14.031,0-28.063,0-42.095,0
			C232.732,112.803,232.732,115.803,234.667,115.803L234.667,115.803z"/>
	</g>
</g>
<g>
	<g>
		<path fill="#1A171B" d="M234.667,124.414c14.031,0,28.063,0,42.095,0c1.935,0,1.935-3,0-3c-14.031,0-28.063,0-42.095,0
			C232.732,121.414,232.732,124.414,234.667,124.414L234.667,124.414z"/>
	</g>
</g>
<g>
	<g>
		<path fill="#1A171B" d="M234.667,133.025c14.031,0,28.063,0,42.095,0c1.935,0,1.935-3,0-3c-14.031,0-28.063,0-42.095,0
			C232.732,130.025,232.732,133.025,234.667,133.025L234.667,133.025z"/>
	</g>
</g>
<g>
	<g>
		<path fill="#1A171B" d="M234.667,141.637c14.031,0,28.063,0,42.095,0c1.935,0,1.935-3,0-3c-14.031,0-28.063,0-42.095,0
			C232.732,138.637,232.732,141.637,234.667,141.637L234.667,141.637z"/>
	</g>
</g>
<g>
	<g>
		<path fill="#1A171B" d="M234.667,150.248c14.031,0,28.063,0,42.095,0c1.935,0,1.935-3,0-3c-14.031,0-28.063,0-42.095,0
			C232.732,147.248,232.732,150.248,234.667,150.248L234.667,150.248z"/>
	</g>
</g>
<g>
	<g>
		<path fill="#1A171B" d="M234.667,158.857c14.031,0,28.063,0,42.095,0c1.935,0,1.935-3,0-3c-14.031,0-28.063,0-42.095,0
			C232.732,155.857,232.732,158.857,234.667,158.857L234.667,158.857z"/>
	</g>
</g>
<g>
	<g>
		<path fill="#1A171B" d="M234.667,167.469c14.031,0,28.063,0,42.095,0c1.935,0,1.935-3,0-3c-14.031,0-28.063,0-42.095,0
			C232.732,164.469,232.732,167.469,234.667,167.469L234.667,167.469z"/>
	</g>
</g>
<g>
	<g>
		<path fill="#1A171B" d="M236.167,97.08c13.254,0,26.509,0,39.763,0c3.225,0,3.225-5,0-5c-13.254,0-26.509,0-39.763,0
			C232.942,92.08,232.942,97.08,236.167,97.08L236.167,97.08z"/>
	</g>
</g>
<g>
	<g>
		<path fill="#1A171B" d="M236.167,105.747c13.361,0,26.722,0,40.083,0c3.225,0,3.225-5,0-5c-13.361,0-26.722,0-40.083,0
			C232.942,100.747,232.942,105.747,236.167,105.747L236.167,105.747z"/>
	</g>
</g>
<ellipse fill="#FFFFFF" stroke="#00632E" stroke-width="11" stroke-miterlimit="10" cx="271.333" cy="272.961" rx="38.333" ry="38.373"/>
<polyline fill="none" stroke="#009036" stroke-width="11" stroke-miterlimit="10" points="252.333,259.334 269.666,288.667 
	294.333,225.334 "/>
</svg>
